<svg viewBox="0 0 64 64" xmlns="http://www.w3.org/2000/svg"><g data-name="Layer 2"><path d="M53.43 18.71h-2.05a.53.53 0 0 0-.48.3 8.75 8.75 0 0 0-.6 5.91.53.53 0 0 0 .56.38h1.79a.52.52 0 0 0 .51-.69 5.89 5.89 0 0 1 .71-5.07.52.52 0 0 0-.44-.83ZM25.86 10.68a.52.52 0 0 0 .82.41l1.7-1.15a.53.53 0 0 0 .23-.51 8.75 8.75 0 0 0-2.83-5.23.53.53 0 0 0-.68 0c-.28.23-.58.45-.89.67l-.57.37a.52.52 0 0 0 0 .85 5.89 5.89 0 0 1 2.22 4.59Z" fill="#ffffff" class="fill-0072ff"></path><circle cx="38" cy="8" r="2.23" fill="#ffffff" class="fill-0072ff"></circle><circle cx="50.63" cy="54.23" r="2.23" fill="#ffffff" class="fill-0072ff"></circle><path d="M50.28 44.8a2.07 2.07 0 0 0-.28-2.65l-2.9-2.88L24.73 16.9 21.85 14a2.07 2.07 0 0 0-2.65-.29 2 2 0 0 0-.26 3l.83.83a3.07 3.07 0 0 0-.2.35l-4.91 12.38a2.4 2.4 0 0 0 .34 2.39 4 4 0 0 1 .17 4.83 4 4 0 0 1-2.67 1.65 2.36 2.36 0 0 0-1.89 1.42L4.19 56.48a2.56 2.56 0 0 0 3.33 3.33l15.94-6.37a2.36 2.36 0 0 0 1.42-1.89 4 4 0 0 1 5.7-3 4.05 4.05 0 0 1 .77.49 2.4 2.4 0 0 0 2.39.29L46 44.42a3.08 3.08 0 0 0 .35-.2l.83.83a2 2 0 0 0 3.1-.25Zm-27.6 2.1a4 4 0 1 1 0-6.48 4 4 0 0 1 0 6.48Z" fill="#ffffff" class="fill-0072ff"></path><circle cx="32" cy="16" r="1.02" fill="#ffffff" class="fill-0072ff"></circle><circle cx="52" cy="32" r="1.02" fill="#ffffff" class="fill-0072ff"></circle><circle cx="43.73" cy="29.58" r="1.02" fill="#ffffff" class="fill-0072ff"></circle><circle cx="10" cy="16" r="1.02" fill="#ffffff" class="fill-0072ff"></circle><path d="M41.35 21.54a.63.63 0 0 0 0 .89l.52.52a.63.63 0 0 0 .89 0l.52-.52a.63.63 0 0 1 .89 0l.52.52a.63.63 0 0 0 .89 0l.52-.52a.63.63 0 0 0 0-.89l-.51-.54a.63.63 0 0 1 0-.89l.52-.52a.63.63 0 0 0 0-.89l-.52-.52a.63.63 0 0 0-.89 0l-.52.52a.63.63 0 0 1-.89 0l-.52-.52a.63.63 0 0 0-.89 0l-.52.52a.63.63 0 0 0 0 .89l.52.52a.63.63 0 0 1 0 .89ZM53.67 7.41h-.52a.44.44 0 0 1-.44-.41v-.56a.44.44 0 0 0-.45-.44h-.52a.44.44 0 0 0-.44.44V7a.44.44 0 0 1-.44.44h-.52a.44.44 0 0 0-.44.44v.52a.44.44 0 0 0 .44.44h.52a.44.44 0 0 1 .44.44v.52a.44.44 0 0 0 .44.44h.52a.44.44 0 0 0 .44-.44v-.53a.44.44 0 0 1 .44-.44h.52a.44.44 0 0 0 .44-.44v-.53a.44.44 0 0 0-.43-.45ZM59.11 46.42h-.52a.44.44 0 0 1-.44-.44v-.52a.44.44 0 0 0-.45-.46h-.52a.44.44 0 0 0-.44.44V46a.44.44 0 0 1-.44.44h-.52a.44.44 0 0 0-.44.44v.52a.44.44 0 0 0 .44.44h.52a.44.44 0 0 1 .44.44v.52a.44.44 0 0 0 .44.44h.52a.44.44 0 0 0 .44-.44v-.52a.44.44 0 0 1 .44-.44h.52a.44.44 0 0 0 .44-.44v-.52a.44.44 0 0 0-.43-.46ZM6.32 26.8a.44.44 0 0 0 0 .63l.37.37a.44.44 0 0 0 .63 0l.37-.37a.44.44 0 0 1 .63 0l.37.37a.44.44 0 0 0 .63 0l.37-.37a.44.44 0 0 0 0-.63l-.37-.37a.44.44 0 0 1 0-.63l.37-.37a.44.44 0 0 0 0-.63l-.37-.37a.44.44 0 0 0-.63 0l-.37.37a.44.44 0 0 1-.63 0l-.37-.37a.44.44 0 0 0-.63 0l-.37.37a.44.44 0 0 0 0 .63l.37.37a.44.44 0 0 1 0 .63Z" fill="#ffffff" class="fill-0072ff"></path></g></svg>