<svg version="1.2" xmlns="http://www.w3.org/2000/svg" viewBox="0 0 1584 1152" width="1584" height="1152"><defs><linearGradient id="P" gradientUnits="userSpaceOnUse"/><linearGradient id="g1" x1="1019.8" y1="-359.8" x2="1803.8" y2="1116.2" href="#P"><stop stop-color="#fff"/><stop offset="1" stop-color="#f0f7fc"/></linearGradient><linearGradient id="g2" x1="2019.3" y1="2113.7" x2="683.1" y2="50.6" href="#P"><stop stop-color="#52bbe8"/><stop offset="1" stop-color="#e1eff8"/></linearGradient><linearGradient id="g3" x1="2119.9" y1="1994.3" x2="783.7" y2="-68.8" href="#P"><stop stop-color="#52bbe8"/><stop offset="1" stop-color="#e1eff8"/></linearGradient><linearGradient id="g4" x1="2220.4" y1="1874.9" x2="884.2" y2="-188.2" href="#P"><stop stop-color="#52bbe8"/><stop offset="1" stop-color="#e1eff8"/></linearGradient><linearGradient id="g5" x1="2320.9" y1="1755.5" x2="984.7" y2="-307.5" href="#P"><stop stop-color="#52bbe8"/><stop offset="1" stop-color="#e1eff8"/></linearGradient><linearGradient id="g6" x1="2230.8" y1="1505.5" x2="1050.4" y2="-317" href="#P"><stop stop-color="#52bbe8"/><stop offset="1" stop-color="#e1eff8"/></linearGradient><linearGradient id="g7" x1="1463.6" y1="2645.4" x2="127.4" y2="582.3" href="#P"><stop stop-color="#52bbe8"/><stop offset="1" stop-color="#e1eff8"/></linearGradient><linearGradient id="g8" x1="1966.2" y1="2048.4" x2="630" y2="-14.7" href="#P"><stop stop-color="#52bbe8"/><stop offset="1" stop-color="#e1eff8"/></linearGradient><linearGradient id="g9" x1="2066.7" y1="1929" x2="730.5" y2="-134.1" href="#P"><stop stop-color="#52bbe8"/><stop offset="1" stop-color="#e1eff8"/></linearGradient><linearGradient id="g10" x1="2167.3" y1="1809.6" x2="831.1" y2="-253.5" href="#P"><stop stop-color="#52bbe8"/><stop offset="1" stop-color="#e1eff8"/></linearGradient><linearGradient id="g11" x1="2267.8" y1="1690.2" x2="931.6" y2="-372.9" href="#P"><stop stop-color="#52bbe8"/><stop offset="1" stop-color="#e1eff8"/></linearGradient><linearGradient id="g12" x1="1953.5" y1="1404.8" x2="955.9" y2="-135.5" href="#P"><stop stop-color="#52bbe8"/><stop offset="1" stop-color="#e1eff8"/></linearGradient><linearGradient id="g13" x1="2013.6" y1="1863.7" x2="677.4" y2="-199.4" href="#P"><stop stop-color="#52bbe8"/><stop offset="1" stop-color="#e1eff8"/></linearGradient><linearGradient id="g14" x1="2114.1" y1="1744.3" x2="777.9" y2="-318.8" href="#P"><stop stop-color="#52bbe8"/><stop offset="1" stop-color="#e1eff8"/></linearGradient><linearGradient id="g15" x1="2048.1" y1="1531.5" x2="867.7" y2="-291.1" href="#P"><stop stop-color="#52bbe8"/><stop offset="1" stop-color="#e1eff8"/></linearGradient><linearGradient id="g16" x1="1960.5" y1="1798.4" x2="624.3" y2="-264.7" href="#P"><stop stop-color="#52bbe8"/><stop offset="1" stop-color="#e1eff8"/></linearGradient><linearGradient id="g17" x1="2061" y1="1679" x2="724.8" y2="-384.1" href="#P"><stop stop-color="#52bbe8"/><stop offset="1" stop-color="#e1eff8"/></linearGradient><linearGradient id="g18" x1="1799.1" y1="1474.4" x2="801.5" y2="-65.8" href="#P"><stop stop-color="#52bbe8"/><stop offset="1" stop-color="#e1eff8"/></linearGradient><linearGradient id="g19" x1="1203.7" y1="2568.8" x2="-132.5" y2="505.7" href="#P"><stop stop-color="#52bbe8"/><stop offset="1" stop-color="#e1eff8"/></linearGradient><linearGradient id="g20" x1="1907.3" y1="1733.1" x2="571.1" y2="-330" href="#P"><stop stop-color="#52bbe8"/><stop offset="1" stop-color="#e1eff8"/></linearGradient><linearGradient id="g21" x1="1865.4" y1="1557.5" x2="685" y2="-265.1" href="#P"><stop stop-color="#52bbe8"/><stop offset="1" stop-color="#e1eff8"/></linearGradient><linearGradient id="g22" x1="1050" y1="2622.9" x2="-286.2" y2="559.8" href="#P"><stop stop-color="#52bbe8"/><stop offset="1" stop-color="#e1eff8"/></linearGradient><linearGradient id="g23" x1="1150.5" y1="2503.5" x2="-185.7" y2="440.4" href="#P"><stop stop-color="#52bbe8"/><stop offset="1" stop-color="#e1eff8"/></linearGradient><linearGradient id="g24" x1="1251" y1="2384.1" x2="-85.2" y2="321" href="#P"><stop stop-color="#52bbe8"/><stop offset="1" stop-color="#e1eff8"/></linearGradient><linearGradient id="g25" x1="1351.6" y1="2264.7" x2="15.4" y2="201.6" href="#P"><stop stop-color="#52bbe8"/><stop offset="1" stop-color="#e1eff8"/></linearGradient><linearGradient id="g26" x1="1644.7" y1="1544.1" x2="647.2" y2="3.9" href="#P"><stop stop-color="#52bbe8"/><stop offset="1" stop-color="#e1eff8"/></linearGradient><linearGradient id="g27" x1="996.9" y1="2557.6" x2="-339.3" y2="494.5" href="#P"><stop stop-color="#52bbe8"/><stop offset="1" stop-color="#e1eff8"/></linearGradient><linearGradient id="g28" x1="1097.4" y1="2438.2" x2="-238.8" y2="375.1" href="#P"><stop stop-color="#52bbe8"/><stop offset="1" stop-color="#e1eff8"/></linearGradient><linearGradient id="g29" x1="1197.9" y1="2318.8" x2="-138.3" y2="255.7" href="#P"><stop stop-color="#52bbe8"/><stop offset="1" stop-color="#e1eff8"/></linearGradient><linearGradient id="g30" x1="837.1" y1="2374" x2="-340.4" y2="556" href="#P"><stop stop-color="#52bbe8"/><stop offset="1" stop-color="#e1eff8"/></linearGradient><linearGradient id="g31" x1="946.8" y1="2268.8" x2="-230.7" y2="450.8" href="#P"><stop stop-color="#52bbe8"/><stop offset="1" stop-color="#e1eff8"/></linearGradient><linearGradient id="g32" x1="1056.5" y1="2163.6" x2="-120.9" y2="345.6" href="#P"><stop stop-color="#52bbe8"/><stop offset="1" stop-color="#e1eff8"/></linearGradient><linearGradient id="g33" x1="1166.2" y1="2058.3" x2="-11.2" y2="240.4" href="#P"><stop stop-color="#52bbe8"/><stop offset="1" stop-color="#e1eff8"/></linearGradient><linearGradient id="g34" x1="1605.1" y1="1637.5" x2="427.6" y2="-180.5" href="#P"><stop stop-color="#52bbe8"/><stop offset="1" stop-color="#e1eff8"/></linearGradient><linearGradient id="g35" x1="1714.8" y1="1532.3" x2="537.3" y2="-285.7" href="#P"><stop stop-color="#52bbe8"/><stop offset="1" stop-color="#e1eff8"/></linearGradient><linearGradient id="g36" x1="2181.5" y1="1717" x2="1018.4" y2="-78.7" href="#P"><stop stop-color="#52bbe8"/><stop offset="1" stop-color="#e1eff8"/></linearGradient><linearGradient id="g37" x1="2325.5" y1="1581.6" x2="1162.5" y2="-214.2" href="#P"><stop stop-color="#52bbe8"/><stop offset="1" stop-color="#e1eff8"/></linearGradient><linearGradient id="g38" x1="2317.2" y1="1289.1" x2="1287.8" y2="-300.4" href="#P"><stop stop-color="#52bbe8"/><stop offset="1" stop-color="#e1eff8"/></linearGradient><linearGradient id="g39" x1="2194.9" y1="1920.7" x2="858.7" y2="-142.4" href="#P"><stop stop-color="#52bbe8"/><stop offset="1" stop-color="#e1eff8"/></linearGradient><linearGradient id="g40" x1="2325.9" y1="1765.1" x2="989.7" y2="-298" href="#P"><stop stop-color="#52bbe8"/><stop offset="1" stop-color="#e1eff8"/></linearGradient><linearGradient id="g41" x1="2070.5" y1="1425.1" x2="1017.1" y2="-201.3" href="#P"><stop stop-color="#52bbe8"/><stop offset="1" stop-color="#e1eff8"/></linearGradient><linearGradient id="g42" x1="2125.6" y1="1835.5" x2="789.5" y2="-227.5" href="#P"><stop stop-color="#52bbe8"/><stop offset="1" stop-color="#e1eff8"/></linearGradient><linearGradient id="g43" x1="2118.4" y1="1603.2" x2="891.4" y2="-291.3" href="#P"><stop stop-color="#52bbe8"/><stop offset="1" stop-color="#e1eff8"/></linearGradient><linearGradient id="g44" x1="777.4" y1="2415" x2="-277.9" y2="785.7" href="#P"><stop stop-color="#52bbe8"/><stop offset="1" stop-color="#e1eff8"/></linearGradient><linearGradient id="g45" x1="1270.3" y1="2684" x2="-65.9" y2="621" href="#P"><stop stop-color="#52bbe8"/><stop offset="1" stop-color="#e1eff8"/></linearGradient><linearGradient id="g46" x1="1401.3" y1="2528.4" x2="65.1" y2="465.3" href="#P"><stop stop-color="#52bbe8"/><stop offset="1" stop-color="#e1eff8"/></linearGradient><linearGradient id="g47" x1="1858" y1="1498.6" x2="804.6" y2="-127.9" href="#P"><stop stop-color="#52bbe8"/><stop offset="1" stop-color="#e1eff8"/></linearGradient><linearGradient id="g48" x1="958.7" y1="2620.9" x2="-270.3" y2="723.3" href="#P"><stop stop-color="#52bbe8"/><stop offset="1" stop-color="#e1eff8"/></linearGradient><linearGradient id="g49" x1="1201.1" y1="2598.9" x2="-135.1" y2="535.8" href="#P"><stop stop-color="#52bbe8"/><stop offset="1" stop-color="#e1eff8"/></linearGradient><linearGradient id="g50" x1="1332.1" y1="2443.3" x2="-4.1" y2="380.2" href="#P"><stop stop-color="#52bbe8"/><stop offset="1" stop-color="#e1eff8"/></linearGradient><linearGradient id="g51" x1="564.6" y1="2487.9" x2="-490.7" y2="858.5" href="#P"><stop stop-color="#52bbe8"/><stop offset="1" stop-color="#e1eff8"/></linearGradient><linearGradient id="g52" x1="1000.8" y1="2669.4" x2="-335.4" y2="606.3" href="#P"><stop stop-color="#52bbe8"/><stop offset="1" stop-color="#e1eff8"/></linearGradient><linearGradient id="g53" x1="1131.8" y1="2513.8" x2="-204.4" y2="450.7" href="#P"><stop stop-color="#52bbe8"/><stop offset="1" stop-color="#e1eff8"/></linearGradient><linearGradient id="g54" x1="1786.9" y1="1735.8" x2="450.7" y2="-327.3" href="#P"><stop stop-color="#52bbe8"/><stop offset="1" stop-color="#e1eff8"/></linearGradient><linearGradient id="g55" x1="567.6" y1="2190.2" x2="-340.5" y2="788" href="#P"><stop stop-color="#52bbe8"/><stop offset="1" stop-color="#e1eff8"/></linearGradient><linearGradient id="g56" x1="700.9" y1="2592.9" x2="-498.5" y2="741.1" href="#P"><stop stop-color="#52bbe8"/><stop offset="1" stop-color="#e1eff8"/></linearGradient><linearGradient id="g57" x1="921.5" y1="2543.1" x2="-385.5" y2="525.2" href="#P"><stop stop-color="#52bbe8"/><stop offset="1" stop-color="#e1eff8"/></linearGradient><linearGradient id="g58" x1="1054.7" y1="2390.9" x2="-252.3" y2="373" href="#P"><stop stop-color="#52bbe8"/><stop offset="1" stop-color="#e1eff8"/></linearGradient><linearGradient id="g59" x1="1587.6" y1="1782.1" x2="280.6" y2="-235.8" href="#P"><stop stop-color="#52bbe8"/><stop offset="1" stop-color="#e1eff8"/></linearGradient><linearGradient id="g60" x1="1653.3" y1="1656.5" x2="373.2" y2="-319.9" href="#P"><stop stop-color="#52bbe8"/><stop offset="1" stop-color="#e1eff8"/></linearGradient><linearGradient id="g61" x1="2607.5" y1="2736" x2="-3969.3" y2="-7418.6" href="#P"><stop stop-color="#52bbe8"/><stop offset="1" stop-color="#e1eff8"/></linearGradient><linearGradient id="g62" x1="567.6" y1="2190.2" x2="-340.5" y2="788" href="#P"><stop stop-color="#52bbe8"/><stop offset="1" stop-color="#e1eff8"/></linearGradient><linearGradient id="g63" x1="918.2" y1="2504.5" x2="-394.7" y2="477.3" href="#P"><stop stop-color="#52bbe8"/><stop offset="1" stop-color="#e1eff8"/></linearGradient><linearGradient id="g64" x1="1051" y1="2351.6" x2="-261.9" y2="324.4" href="#P"><stop stop-color="#52bbe8"/><stop offset="1" stop-color="#e1eff8"/></linearGradient><linearGradient id="g65" x1="1183.8" y1="2198.7" x2="-129.2" y2="171.5" href="#P"><stop stop-color="#52bbe8"/><stop offset="1" stop-color="#e1eff8"/></linearGradient><linearGradient id="g66" x1="1316.5" y1="2045.8" x2="3.6" y2="18.6" href="#P"><stop stop-color="#52bbe8"/><stop offset="1" stop-color="#e1eff8"/></linearGradient><linearGradient id="g67" x1="1449.3" y1="1892.9" x2="136.3" y2="-134.3" href="#P"><stop stop-color="#52bbe8"/><stop offset="1" stop-color="#e1eff8"/></linearGradient><linearGradient id="g68" x1="1582.1" y1="1740" x2="269.1" y2="-287.2" href="#P"><stop stop-color="#52bbe8"/><stop offset="1" stop-color="#e1eff8"/></linearGradient><linearGradient id="g69" x1="1714.8" y1="1587.1" x2="401.9" y2="-440.1" href="#P"><stop stop-color="#52bbe8"/><stop offset="1" stop-color="#e1eff8"/></linearGradient><linearGradient id="g70" x1="2607.5" y1="2735.9" x2="-3969.1" y2="-7418.3" href="#P"><stop stop-color="#52bbe8"/><stop offset="1" stop-color="#e1eff8"/></linearGradient><linearGradient id="g71" x1="1583.4" y1="2370.9" x2="327.5" y2="432" href="#P"><stop stop-color="#52bbe8"/><stop offset="1" stop-color="#e1eff8"/></linearGradient><linearGradient id="g72" x1="2034.7" y1="2025.1" x2="778.8" y2="86" href="#P"><stop stop-color="#52bbe8"/><stop offset="1" stop-color="#e1eff8"/></linearGradient><linearGradient id="g73" x1="2041.8" y1="1978.6" x2="786" y2="39.7" href="#P"><stop stop-color="#52bbe8"/><stop offset="1" stop-color="#e1eff8"/></linearGradient><linearGradient id="g74" x1="1982.4" y1="1977.8" x2="726.6" y2="38.9" href="#P"><stop stop-color="#52bbe8"/><stop offset="1" stop-color="#e1eff8"/></linearGradient><linearGradient id="g75" x1="2003.5" y1="1922.5" x2="747.7" y2="-16.5" href="#P"><stop stop-color="#52bbe8"/><stop offset="1" stop-color="#e1eff8"/></linearGradient><linearGradient id="g76" x1="2136.9" y1="1914.7" x2="881.1" y2="-24.3" href="#P"><stop stop-color="#52bbe8"/><stop offset="1" stop-color="#e1eff8"/></linearGradient><linearGradient id="g77" x1="2153.1" y1="1862.5" x2="897.3" y2="-76.5" href="#P"><stop stop-color="#52bbe8"/><stop offset="1" stop-color="#e1eff8"/></linearGradient><linearGradient id="g78" x1="2082.1" y1="1869.1" x2="826.3" y2="-69.8" href="#P"><stop stop-color="#52bbe8"/><stop offset="1" stop-color="#e1eff8"/></linearGradient><linearGradient id="g79" x1="2240.2" y1="1803.7" x2="984.4" y2="-135.3" href="#P"><stop stop-color="#52bbe8"/><stop offset="1" stop-color="#e1eff8"/></linearGradient><linearGradient id="g80" x1="2255.3" y1="1752.2" x2="999.5" y2="-186.8" href="#P"><stop stop-color="#52bbe8"/><stop offset="1" stop-color="#e1eff8"/></linearGradient><linearGradient id="g81" x1="2188.3" y1="1756.3" x2="932.5" y2="-182.7" href="#P"><stop stop-color="#52bbe8"/><stop offset="1" stop-color="#e1eff8"/></linearGradient><linearGradient id="g82" x1="2344.5" y1="1692.1" x2="1088.6" y2="-246.9" href="#P"><stop stop-color="#52bbe8"/><stop offset="1" stop-color="#e1eff8"/></linearGradient><linearGradient id="g83" x1="2363.6" y1="1637.9" x2="1107.8" y2="-301" href="#P"><stop stop-color="#52bbe8"/><stop offset="1" stop-color="#e1eff8"/></linearGradient><linearGradient id="g84" x1="2301.1" y1="1639.1" x2="1045.3" y2="-299.9" href="#P"><stop stop-color="#52bbe8"/><stop offset="1" stop-color="#e1eff8"/></linearGradient><linearGradient id="g85" x1="2451.2" y1="1578.8" x2="1195.4" y2="-360.1" href="#P"><stop stop-color="#52bbe8"/><stop offset="1" stop-color="#e1eff8"/></linearGradient><linearGradient id="g86" x1="2468.3" y1="1526.1" x2="1212.5" y2="-412.9" href="#P"><stop stop-color="#52bbe8"/><stop offset="1" stop-color="#e1eff8"/></linearGradient><linearGradient id="g87" x1="2402.4" y1="1529.5" x2="1146.6" y2="-409.5" href="#P"><stop stop-color="#52bbe8"/><stop offset="1" stop-color="#e1eff8"/></linearGradient><linearGradient id="g88" x1="2553.7" y1="1468.4" x2="1297.9" y2="-470.6" href="#P"><stop stop-color="#52bbe8"/><stop offset="1" stop-color="#e1eff8"/></linearGradient><linearGradient id="g89" x1="1431.5" y1="2432.4" x2="175.7" y2="493.4" href="#P"><stop stop-color="#52bbe8"/><stop offset="1" stop-color="#e1eff8"/></linearGradient><linearGradient id="g90" x1="1414.9" y1="2484.9" x2="159" y2="545.9" href="#P"><stop stop-color="#52bbe8"/><stop offset="1" stop-color="#e1eff8"/></linearGradient><linearGradient id="g91" x1="1481.1" y1="2481.3" x2="225.3" y2="542.3" href="#P"><stop stop-color="#52bbe8"/><stop offset="1" stop-color="#e1eff8"/></linearGradient><linearGradient id="g92" x1="1556.7" y1="2429.9" x2="300.9" y2="490.9" href="#P"><stop stop-color="#52bbe8"/><stop offset="1" stop-color="#e1eff8"/></linearGradient><linearGradient id="g93" x1="1514.3" y1="2376.4" x2="258.5" y2="437.4" href="#P"><stop stop-color="#52bbe8"/><stop offset="1" stop-color="#e1eff8"/></linearGradient><linearGradient id="g94" x1="1935.9" y1="1926.9" x2="680.1" y2="-12.1" href="#P"><stop stop-color="#52bbe8"/><stop offset="1" stop-color="#e1eff8"/></linearGradient><linearGradient id="g95" x1="2111.2" y1="1808.6" x2="855.3" y2="-130.3" href="#P"><stop stop-color="#52bbe8"/><stop offset="1" stop-color="#e1eff8"/></linearGradient><linearGradient id="g96" x1="2041.7" y1="1814.3" x2="785.9" y2="-124.6" href="#P"><stop stop-color="#52bbe8"/><stop offset="1" stop-color="#e1eff8"/></linearGradient><linearGradient id="g97" x1="2065.6" y1="1757.1" x2="809.8" y2="-181.8" href="#P"><stop stop-color="#52bbe8"/><stop offset="1" stop-color="#e1eff8"/></linearGradient><linearGradient id="g98" x1="2206.8" y1="1702.6" x2="950.9" y2="-236.3" href="#P"><stop stop-color="#52bbe8"/><stop offset="1" stop-color="#e1eff8"/></linearGradient><linearGradient id="g99" x1="2315.8" y1="1587.9" x2="1060" y2="-351.1" href="#P"><stop stop-color="#52bbe8"/><stop offset="1" stop-color="#e1eff8"/></linearGradient><linearGradient id="g100" x1="2271.3" y1="1535.8" x2="1015.5" y2="-403.2" href="#P"><stop stop-color="#52bbe8"/><stop offset="1" stop-color="#e1eff8"/></linearGradient><linearGradient id="g101" x1="2249.1" y1="1591.8" x2="993.3" y2="-347.1" href="#P"><stop stop-color="#52bbe8"/><stop offset="1" stop-color="#e1eff8"/></linearGradient><linearGradient id="g102" x1="2420.2" y1="1476.2" x2="1164.4" y2="-462.8" href="#P"><stop stop-color="#52bbe8"/><stop offset="1" stop-color="#e1eff8"/></linearGradient><linearGradient id="g103" x1="1958.3" y1="1870.7" x2="702.5" y2="-68.3" href="#P"><stop stop-color="#52bbe8"/><stop offset="1" stop-color="#e1eff8"/></linearGradient><linearGradient id="g104" x1="2150.1" y1="1700" x2="894.3" y2="-239" href="#P"><stop stop-color="#52bbe8"/><stop offset="1" stop-color="#e1eff8"/></linearGradient><linearGradient id="g105" x1="2169.8" y1="1645.5" x2="914" y2="-293.4" href="#P"><stop stop-color="#52bbe8"/><stop offset="1" stop-color="#e1eff8"/></linearGradient><linearGradient id="g106" x1="2230.5" y1="1481.2" x2="974.7" y2="-457.8" href="#P"><stop stop-color="#52bbe8"/><stop offset="1" stop-color="#e1eff8"/></linearGradient><linearGradient id="g107" x1="2208.1" y1="1537.4" x2="952.3" y2="-401.6" href="#P"><stop stop-color="#52bbe8"/><stop offset="1" stop-color="#e1eff8"/></linearGradient><linearGradient id="g108" x1="2358.3" y1="1477" x2="1102.5" y2="-462" href="#P"><stop stop-color="#52bbe8"/><stop offset="1" stop-color="#e1eff8"/></linearGradient><linearGradient id="g109" x1="1235.8" y1="2441.2" x2="-20" y2="502.2" href="#P"><stop stop-color="#52bbe8"/><stop offset="1" stop-color="#e1eff8"/></linearGradient><linearGradient id="g110" x1="1225.6" y1="2489.7" x2="-30.3" y2="550.6" href="#P"><stop stop-color="#52bbe8"/><stop offset="1" stop-color="#e1eff8"/></linearGradient><linearGradient id="g111" x1="1282.6" y1="2491.9" x2="26.8" y2="552.9" href="#P"><stop stop-color="#52bbe8"/><stop offset="1" stop-color="#e1eff8"/></linearGradient><linearGradient id="g112" x1="1368.8" y1="2433.7" x2="112.9" y2="494.7" href="#P"><stop stop-color="#52bbe8"/><stop offset="1" stop-color="#e1eff8"/></linearGradient><linearGradient id="g113" x1="1345.1" y1="2326.3" x2="89.3" y2="387.4" href="#P"><stop stop-color="#52bbe8"/><stop offset="1" stop-color="#e1eff8"/></linearGradient><linearGradient id="g114" x1="1996.3" y1="1762.8" x2="740.4" y2="-176.2" href="#P"><stop stop-color="#52bbe8"/><stop offset="1" stop-color="#e1eff8"/></linearGradient><linearGradient id="g115" x1="2016" y1="1708.2" x2="760.2" y2="-230.7" href="#P"><stop stop-color="#52bbe8"/><stop offset="1" stop-color="#e1eff8"/></linearGradient><linearGradient id="g116" x1="1976" y1="1653.2" x2="720.2" y2="-285.8" href="#P"><stop stop-color="#52bbe8"/><stop offset="1" stop-color="#e1eff8"/></linearGradient><linearGradient id="g117" x1="1953.7" y1="1709.3" x2="697.9" y2="-229.7" href="#P"><stop stop-color="#52bbe8"/><stop offset="1" stop-color="#e1eff8"/></linearGradient><linearGradient id="g118" x1="2102.8" y1="1649.6" x2="847" y2="-289.3" href="#P"><stop stop-color="#52bbe8"/><stop offset="1" stop-color="#e1eff8"/></linearGradient><linearGradient id="g119" x1="2054.2" y1="1600.1" x2="798.4" y2="-338.9" href="#P"><stop stop-color="#52bbe8"/><stop offset="1" stop-color="#e1eff8"/></linearGradient><linearGradient id="g120" x1="2080.3" y1="1541.5" x2="824.5" y2="-397.5" href="#P"><stop stop-color="#52bbe8"/><stop offset="1" stop-color="#e1eff8"/></linearGradient><linearGradient id="g121" x1="2119.1" y1="1597.4" x2="863.3" y2="-341.6" href="#P"><stop stop-color="#52bbe8"/><stop offset="1" stop-color="#e1eff8"/></linearGradient><linearGradient id="g122" x1="2166.9" y1="1483" x2="911.1" y2="-456" href="#P"><stop stop-color="#52bbe8"/><stop offset="1" stop-color="#e1eff8"/></linearGradient><linearGradient id="g123" x1="1318.5" y1="2385.3" x2="62.7" y2="446.3" href="#P"><stop stop-color="#52bbe8"/><stop offset="1" stop-color="#e1eff8"/></linearGradient><linearGradient id="g124" x1="1275.9" y1="2331.9" x2="20.1" y2="392.9" href="#P"><stop stop-color="#52bbe8"/><stop offset="1" stop-color="#e1eff8"/></linearGradient><linearGradient id="g125" x1="1386.9" y1="2215.9" x2="131.1" y2="276.9" href="#P"><stop stop-color="#52bbe8"/><stop offset="1" stop-color="#e1eff8"/></linearGradient><linearGradient id="g126" x1="1402.1" y1="2164.3" x2="146.3" y2="225.3" href="#P"><stop stop-color="#52bbe8"/><stop offset="1" stop-color="#e1eff8"/></linearGradient><linearGradient id="g127" x1="1487.5" y1="2106.6" x2="231.7" y2="167.7" href="#P"><stop stop-color="#52bbe8"/><stop offset="1" stop-color="#e1eff8"/></linearGradient><linearGradient id="g128" x1="1506" y1="2053" x2="250.2" y2="114" href="#P"><stop stop-color="#52bbe8"/><stop offset="1" stop-color="#e1eff8"/></linearGradient><linearGradient id="g129" x1="1045.6" y1="2446.5" x2="-210.2" y2="507.5" href="#P"><stop stop-color="#52bbe8"/><stop offset="1" stop-color="#e1eff8"/></linearGradient><linearGradient id="g130" x1="1026.8" y1="2500.4" x2="-229.1" y2="561.4" href="#P"><stop stop-color="#52bbe8"/><stop offset="1" stop-color="#e1eff8"/></linearGradient><linearGradient id="g131" x1="1094.4" y1="2495.9" x2="-161.4" y2="556.9" href="#P"><stop stop-color="#52bbe8"/><stop offset="1" stop-color="#e1eff8"/></linearGradient><linearGradient id="g132" x1="1171.4" y1="2443.6" x2="-84.4" y2="504.7" href="#P"><stop stop-color="#52bbe8"/><stop offset="1" stop-color="#e1eff8"/></linearGradient><linearGradient id="g133" x1="1128.6" y1="2390.3" x2="-127.2" y2="451.3" href="#P"><stop stop-color="#52bbe8"/><stop offset="1" stop-color="#e1eff8"/></linearGradient><linearGradient id="g134" x1="1196.1" y1="2385.9" x2="-59.7" y2="446.9" href="#P"><stop stop-color="#52bbe8"/><stop offset="1" stop-color="#e1eff8"/></linearGradient><linearGradient id="g135" x1="1302.4" y1="2273" x2="46.6" y2="334" href="#P"><stop stop-color="#52bbe8"/><stop offset="1" stop-color="#e1eff8"/></linearGradient><linearGradient id="g136" x1="1254.5" y1="2223" x2="-1.3" y2="284" href="#P"><stop stop-color="#52bbe8"/><stop offset="1" stop-color="#e1eff8"/></linearGradient><linearGradient id="g137" x1="1230.7" y1="2280.1" x2="-25.1" y2="341.2" href="#P"><stop stop-color="#52bbe8"/><stop offset="1" stop-color="#e1eff8"/></linearGradient><linearGradient id="g138" x1="1440.1" y1="2056.3" x2="184.3" y2="117.3" href="#P"><stop stop-color="#52bbe8"/><stop offset="1" stop-color="#e1eff8"/></linearGradient><linearGradient id="g139" x1="1782.2" y1="1660.8" x2="526.3" y2="-278.2" href="#P"><stop stop-color="#52bbe8"/><stop offset="1" stop-color="#e1eff8"/></linearGradient><linearGradient id="g140" x1="1910.7" y1="1656.2" x2="654.9" y2="-282.8" href="#P"><stop stop-color="#52bbe8"/><stop offset="1" stop-color="#e1eff8"/></linearGradient><linearGradient id="g141" x1="1923.8" y1="1606" x2="668" y2="-333" href="#P"><stop stop-color="#52bbe8"/><stop offset="1" stop-color="#e1eff8"/></linearGradient><linearGradient id="g142" x1="2015.4" y1="1544.3" x2="759.6" y2="-394.7" href="#P"><stop stop-color="#52bbe8"/><stop offset="1" stop-color="#e1eff8"/></linearGradient><linearGradient id="g143" x1="2031.7" y1="1492" x2="775.9" y2="-446.9" href="#P"><stop stop-color="#52bbe8"/><stop offset="1" stop-color="#e1eff8"/></linearGradient><linearGradient id="g144" x1="1962.9" y1="1497.2" x2="707.1" y2="-441.7" href="#P"><stop stop-color="#52bbe8"/><stop offset="1" stop-color="#e1eff8"/></linearGradient><linearGradient id="g145" x1="1149.7" y1="2335" x2="-106.2" y2="396" href="#P"><stop stop-color="#52bbe8"/><stop offset="1" stop-color="#e1eff8"/></linearGradient><linearGradient id="g146" x1="1079.9" y1="2340.9" x2="-175.9" y2="401.9" href="#P"><stop stop-color="#52bbe8"/><stop offset="1" stop-color="#e1eff8"/></linearGradient><linearGradient id="g147" x1="1334.3" y1="2169" x2="78.4" y2="230" href="#P"><stop stop-color="#52bbe8"/><stop offset="1" stop-color="#e1eff8"/></linearGradient><linearGradient id="g148" x1="1362.9" y1="2108.7" x2="107.1" y2="169.7" href="#P"><stop stop-color="#52bbe8"/><stop offset="1" stop-color="#e1eff8"/></linearGradient><linearGradient id="g149" x1="1313.4" y1="2059.8" x2="57.6" y2="120.8" href="#P"><stop stop-color="#52bbe8"/><stop offset="1" stop-color="#e1eff8"/></linearGradient><linearGradient id="g150" x1="1288" y1="2117.9" x2="32.2" y2="179" href="#P"><stop stop-color="#52bbe8"/><stop offset="1" stop-color="#e1eff8"/></linearGradient><linearGradient id="g151" x1="1715.2" y1="1664.9" x2="459.4" y2="-274.1" href="#P"><stop stop-color="#52bbe8"/><stop offset="1" stop-color="#e1eff8"/></linearGradient><linearGradient id="g152" x1="1882.5" y1="1551.7" x2="626.7" y2="-387.3" href="#P"><stop stop-color="#52bbe8"/><stop offset="1" stop-color="#e1eff8"/></linearGradient><linearGradient id="g153" x1="1817.8" y1="1554.3" x2="562" y2="-384.6" href="#P"><stop stop-color="#52bbe8"/><stop offset="1" stop-color="#e1eff8"/></linearGradient><linearGradient id="g154" x1="900.6" y1="2503.5" x2="-355.2" y2="564.5" href="#P"><stop stop-color="#52bbe8"/><stop offset="1" stop-color="#e1eff8"/></linearGradient><linearGradient id="g155" x1="981.1" y1="2449" x2="-274.7" y2="510" href="#P"><stop stop-color="#52bbe8"/><stop offset="1" stop-color="#e1eff8"/></linearGradient><linearGradient id="g156" x1="991.3" y1="2400.7" x2="-264.5" y2="461.7" href="#P"><stop stop-color="#52bbe8"/><stop offset="1" stop-color="#e1eff8"/></linearGradient><linearGradient id="g157" x1="1103" y1="2284.2" x2="-152.8" y2="345.3" href="#P"><stop stop-color="#52bbe8"/><stop offset="1" stop-color="#e1eff8"/></linearGradient><linearGradient id="g158" x1="1186.6" y1="2227.7" x2="-69.2" y2="288.7" href="#P"><stop stop-color="#52bbe8"/><stop offset="1" stop-color="#e1eff8"/></linearGradient><linearGradient id="g159" x1="1205.2" y1="2174" x2="-50.7" y2="235" href="#P"><stop stop-color="#52bbe8"/><stop offset="1" stop-color="#e1eff8"/></linearGradient><linearGradient id="g160" x1="1629.9" y1="1722.5" x2="374.1" y2="-216.5" href="#P"><stop stop-color="#52bbe8"/><stop offset="1" stop-color="#e1eff8"/></linearGradient><linearGradient id="g161" x1="1734.1" y1="1610.9" x2="478.3" y2="-328.1" href="#P"><stop stop-color="#52bbe8"/><stop offset="1" stop-color="#e1eff8"/></linearGradient><linearGradient id="g162" x1="975.7" y1="2285.7" x2="-320.8" y2="283.9" href="#P"><stop stop-color="#52bbe8"/><stop offset="1" stop-color="#e1eff8"/></linearGradient><linearGradient id="g163" x1="1949.3" y1="1740.5" x2="562.2" y2="-401.1" href="#P"><stop stop-color="#52bbe8"/><stop offset="1" stop-color="#e1eff8"/></linearGradient><linearGradient id="g164" x1="2086.1" y1="1616.6" x2="699" y2="-525.1" href="#P"><stop stop-color="#52bbe8"/><stop offset="1" stop-color="#e1eff8"/></linearGradient><linearGradient id="g165" x1="2222.9" y1="1492.6" x2="835.8" y2="-649" href="#P"><stop stop-color="#52bbe8"/><stop offset="1" stop-color="#e1eff8"/></linearGradient><linearGradient id="g166" x1="2265.1" y1="1277.5" x2="979" y2="-708.2" href="#P"><stop stop-color="#52bbe8"/><stop offset="1" stop-color="#e1eff8"/></linearGradient><linearGradient id="g167" x1="2137.8" y1="1836.3" x2="506.9" y2="-681.8" href="#P"><stop stop-color="#52bbe8"/><stop offset="1" stop-color="#e1eff8"/></linearGradient><linearGradient id="g168" x1="2260.5" y1="1690.6" x2="629.6" y2="-827.5" href="#P"><stop stop-color="#52bbe8"/><stop offset="1" stop-color="#e1eff8"/></linearGradient><linearGradient id="g169" x1="2054.5" y1="1377.3" x2="735.8" y2="-658.7" href="#P"><stop stop-color="#52bbe8"/><stop offset="1" stop-color="#e1eff8"/></linearGradient><linearGradient id="g170" x1="2072.9" y1="1756.5" x2="442" y2="-761.5" href="#P"><stop stop-color="#52bbe8"/><stop offset="1" stop-color="#e1eff8"/></linearGradient><linearGradient id="g171" x1="2108.4" y1="1558.2" x2="569.5" y2="-817.8" href="#P"><stop stop-color="#52bbe8"/><stop offset="1" stop-color="#e1eff8"/></linearGradient><linearGradient id="g172" x1="933.9" y1="2461.4" x2="-479.9" y2="278.6" href="#P"><stop stop-color="#52bbe8"/><stop offset="1" stop-color="#e1eff8"/></linearGradient><linearGradient id="g173" x1="2008.1" y1="1676.8" x2="377.2" y2="-841.3" href="#P"><stop stop-color="#52bbe8"/><stop offset="1" stop-color="#e1eff8"/></linearGradient><linearGradient id="g174" x1="1850.4" y1="1438.2" x2="531.7" y2="-597.8" href="#P"><stop stop-color="#52bbe8"/><stop offset="1" stop-color="#e1eff8"/></linearGradient><linearGradient id="g175" x1="335.1" y1="2380.6" x2="-842.6" y2="562.2" href="#P"><stop stop-color="#52bbe8"/><stop offset="1" stop-color="#e1eff8"/></linearGradient><linearGradient id="g176" x1="1084.3" y1="2617.2" x2="-546.5" y2="99.1" href="#P"><stop stop-color="#52bbe8"/><stop offset="1" stop-color="#e1eff8"/></linearGradient><linearGradient id="g177" x1="1207" y1="2471.4" x2="-423.8" y2="-46.6" href="#P"><stop stop-color="#52bbe8"/><stop offset="1" stop-color="#e1eff8"/></linearGradient><linearGradient id="g178" x1="1329.7" y1="2325.7" x2="-301.2" y2="-192.4" href="#P"><stop stop-color="#52bbe8"/><stop offset="1" stop-color="#e1eff8"/></linearGradient><linearGradient id="g179" x1="715.1" y1="2499.6" x2="-698.6" y2="316.8" href="#P"><stop stop-color="#52bbe8"/><stop offset="1" stop-color="#e1eff8"/></linearGradient><linearGradient id="g180" x1="1019.5" y1="2537.4" x2="-611.4" y2="19.4" href="#P"><stop stop-color="#52bbe8"/><stop offset="1" stop-color="#e1eff8"/></linearGradient><linearGradient id="g181" x1="1142.2" y1="2391.7" x2="-488.7" y2="-126.4" href="#P"><stop stop-color="#52bbe8"/><stop offset="1" stop-color="#e1eff8"/></linearGradient><linearGradient id="g182" x1="152.8" y1="2475.1" x2="-1024.9" y2="656.7" href="#P"><stop stop-color="#52bbe8"/><stop offset="1" stop-color="#e1eff8"/></linearGradient><linearGradient id="g183" x1="831.9" y1="2603.4" x2="-798.9" y2="85.4" href="#P"><stop stop-color="#52bbe8"/><stop offset="1" stop-color="#e1eff8"/></linearGradient><linearGradient id="g184" x1="954.6" y1="2457.7" x2="-676.3" y2="-60.4" href="#P"><stop stop-color="#52bbe8"/><stop offset="1" stop-color="#e1eff8"/></linearGradient><linearGradient id="g185" x1="1077.3" y1="2312" x2="-553.6" y2="-206.1" href="#P"><stop stop-color="#52bbe8"/><stop offset="1" stop-color="#e1eff8"/></linearGradient><linearGradient id="g186" x1="1568.1" y1="1729.1" x2="-62.8" y2="-789" href="#P"><stop stop-color="#52bbe8"/><stop offset="1" stop-color="#e1eff8"/></linearGradient><linearGradient id="g187" x1="1632.1" y1="1574.7" x2="93.2" y2="-801.3" href="#P"><stop stop-color="#52bbe8"/><stop offset="1" stop-color="#e1eff8"/></linearGradient><linearGradient id="g188" x1="571.8" y1="2170.2" x2="-593.6" y2="370.9" href="#P"><stop stop-color="#52bbe8"/><stop offset="1" stop-color="#e1eff8"/></linearGradient><linearGradient id="g189" x1="853.7" y1="2316.1" x2="-646.8" y2="-0.7" href="#P"><stop stop-color="#52bbe8"/><stop offset="1" stop-color="#e1eff8"/></linearGradient><linearGradient id="g190" x1="983.9" y1="2182" x2="-516.6" y2="-134.8" href="#P"><stop stop-color="#52bbe8"/><stop offset="1" stop-color="#e1eff8"/></linearGradient><linearGradient id="g191" x1="1114.2" y1="2048" x2="-386.4" y2="-268.8" href="#P"><stop stop-color="#52bbe8"/><stop offset="1" stop-color="#e1eff8"/></linearGradient><linearGradient id="g192" x1="1635.1" y1="1511.7" x2="134.6" y2="-805.1" href="#P"><stop stop-color="#52bbe8"/><stop offset="1" stop-color="#e1eff8"/></linearGradient><linearGradient id="g193" x1="1973" y1="1843.6" x2="-1632.4" y2="-3723.2" href="#P"><stop stop-color="#52bbe8"/><stop offset="1" stop-color="#e1eff8"/></linearGradient><linearGradient id="g194" x1="2208.9" y1="1526.8" x2="809.9" y2="-633.3" href="#P"><stop stop-color="#52bbe8"/><stop offset="1" stop-color="#e1eff8"/></linearGradient><linearGradient id="g195" x1="2084" y1="1128.9" x2="974" y2="-585" href="#P"><stop stop-color="#52bbe8"/><stop offset="1" stop-color="#e1eff8"/></linearGradient><linearGradient id="g196" x1="283" y1="2417.6" x2="-881.4" y2="619.7" href="#P"><stop stop-color="#52bbe8"/><stop offset="1" stop-color="#e1eff8"/></linearGradient><linearGradient id="g197" x1="1390.5" y1="2647.6" x2="-240.4" y2="129.5" href="#P"><stop stop-color="#52bbe8"/><stop offset="1" stop-color="#e1eff8"/></linearGradient><linearGradient id="g198" x1="-1010.4" y1="3143.5" x2="-2130.8" y2="1413.5" href="#P"><stop stop-color="#52bbe8"/><stop offset="1" stop-color="#e1eff8"/></linearGradient><linearGradient id="g199" x1="897.5" y1="2493.8" x2="-504.9" y2="328.5" href="#P"><stop stop-color="#52bbe8"/><stop offset="1" stop-color="#e1eff8"/></linearGradient><linearGradient id="g200" x1="1306" y1="2543.7" x2="-324.9" y2="25.6" href="#P"><stop stop-color="#52bbe8"/><stop offset="1" stop-color="#e1eff8"/></linearGradient><linearGradient id="g201" x1="48.2" y1="2545" x2="-1116.3" y2="747.1" href="#P"><stop stop-color="#52bbe8"/><stop offset="1" stop-color="#e1eff8"/></linearGradient><linearGradient id="g202" x1="1061.5" y1="2629.7" x2="-569.3" y2="111.7" href="#P"><stop stop-color="#52bbe8"/><stop offset="1" stop-color="#e1eff8"/></linearGradient><linearGradient id="g203" x1="1858.4" y1="1679.1" x2="230.4" y2="-834.4" href="#P"><stop stop-color="#52bbe8"/><stop offset="1" stop-color="#e1eff8"/></linearGradient><linearGradient id="g204" x1="614.6" y1="2547" x2="-787.8" y2="381.7" href="#P"><stop stop-color="#52bbe8"/><stop offset="1" stop-color="#e1eff8"/></linearGradient><linearGradient id="g205" x1="977" y1="2525.8" x2="-653.9" y2="7.7" href="#P"><stop stop-color="#52bbe8"/><stop offset="1" stop-color="#e1eff8"/></linearGradient><linearGradient id="g206" x1="1616.6" y1="1766.1" x2="-14.2" y2="-751.9" href="#P"><stop stop-color="#52bbe8"/><stop offset="1" stop-color="#e1eff8"/></linearGradient><linearGradient id="g207" x1="1518.8" y1="1582.1" x2="140.1" y2="-546.6" href="#P"><stop stop-color="#52bbe8"/><stop offset="1" stop-color="#e1eff8"/></linearGradient><linearGradient id="g208" x1="6.1" y1="2472.4" x2="-1102.4" y2="760.9" href="#P"><stop stop-color="#52bbe8"/><stop offset="1" stop-color="#e1eff8"/></linearGradient><linearGradient id="g209" x1="701.2" y1="2306" x2="-683.8" y2="167.5" href="#P"><stop stop-color="#52bbe8"/><stop offset="1" stop-color="#e1eff8"/></linearGradient><linearGradient id="g210" x1="879.7" y1="2144.7" x2="-505.4" y2="6.2" href="#P"><stop stop-color="#52bbe8"/><stop offset="1" stop-color="#e1eff8"/></linearGradient><linearGradient id="g211" x1="1058.1" y1="1983.4" x2="-326.9" y2="-155.1" href="#P"><stop stop-color="#52bbe8"/><stop offset="1" stop-color="#e1eff8"/></linearGradient><linearGradient id="g212" x1="1236.6" y1="1822.1" x2="-148.5" y2="-316.4" href="#P"><stop stop-color="#52bbe8"/><stop offset="1" stop-color="#e1eff8"/></linearGradient><linearGradient id="g213" x1="1415" y1="1660.8" x2="30" y2="-477.7" href="#P"><stop stop-color="#52bbe8"/><stop offset="1" stop-color="#e1eff8"/></linearGradient><linearGradient id="g214" x1="1592.7" y1="1500.5" x2="206.7" y2="-639.4" href="#P"><stop stop-color="#52bbe8"/><stop offset="1" stop-color="#e1eff8"/></linearGradient><linearGradient id="g215" x1="-699.3" y1="2932" x2="-1821.5" y2="1199.3" href="#P"><stop stop-color="#52bbe8"/><stop offset="1" stop-color="#e1eff8"/></linearGradient><linearGradient id="g216" x1="1528.4" y1="2462" x2="-4.4" y2="95.4" href="#P"><stop stop-color="#52bbe8"/><stop offset="1" stop-color="#e1eff8"/></linearGradient><linearGradient id="g217" x1="2043" y1="1913.4" x2="510.2" y2="-453.2" href="#P"><stop stop-color="#52bbe8"/><stop offset="1" stop-color="#e1eff8"/></linearGradient><linearGradient id="g218" x1="2172" y1="1776.1" x2="639.3" y2="-590.6" href="#P"><stop stop-color="#52bbe8"/><stop offset="1" stop-color="#e1eff8"/></linearGradient><linearGradient id="g219" x1="2201.3" y1="1706.2" x2="668.5" y2="-660.4" href="#P"><stop stop-color="#52bbe8"/><stop offset="1" stop-color="#e1eff8"/></linearGradient><linearGradient id="g220" x1="2452.3" y1="1436" x2="919.5" y2="-930.6" href="#P"><stop stop-color="#52bbe8"/><stop offset="1" stop-color="#e1eff8"/></linearGradient><linearGradient id="g221" x1="2425.2" y1="1504.4" x2="892.4" y2="-862.1" href="#P"><stop stop-color="#52bbe8"/><stop offset="1" stop-color="#e1eff8"/></linearGradient><linearGradient id="g222" x1="2070.3" y1="1844.9" x2="537.5" y2="-521.8" href="#P"><stop stop-color="#52bbe8"/><stop offset="1" stop-color="#e1eff8"/></linearGradient><linearGradient id="g223" x1="2304.4" y1="1636.5" x2="771.6" y2="-730.1" href="#P"><stop stop-color="#52bbe8"/><stop offset="1" stop-color="#e1eff8"/></linearGradient><linearGradient id="g224" x1="2328.5" y1="1570" x2="795.7" y2="-796.6" href="#P"><stop stop-color="#52bbe8"/><stop offset="1" stop-color="#e1eff8"/></linearGradient><linearGradient id="g225" x1="2375.2" y1="1438" x2="842.4" y2="-928.6" href="#P"><stop stop-color="#52bbe8"/><stop offset="1" stop-color="#e1eff8"/></linearGradient><linearGradient id="g226" x1="1321.8" y1="2401" x2="-211" y2="34.4" href="#P"><stop stop-color="#52bbe8"/><stop offset="1" stop-color="#e1eff8"/></linearGradient><linearGradient id="g227" x1="2116.6" y1="1713.1" x2="583.8" y2="-653.5" href="#P"><stop stop-color="#52bbe8"/><stop offset="1" stop-color="#e1eff8"/></linearGradient><linearGradient id="g228" x1="2140.7" y1="1646.6" x2="608" y2="-720.1" href="#P"><stop stop-color="#52bbe8"/><stop offset="1" stop-color="#e1eff8"/></linearGradient><linearGradient id="g229" x1="2091.9" y1="1579.4" x2="559.1" y2="-787.3" href="#P"><stop stop-color="#52bbe8"/><stop offset="1" stop-color="#e1eff8"/></linearGradient><linearGradient id="g230" x1="2064.6" y1="1647.9" x2="531.9" y2="-718.7" href="#P"><stop stop-color="#52bbe8"/><stop offset="1" stop-color="#e1eff8"/></linearGradient><linearGradient id="g231" x1="2246.7" y1="1575" x2="713.9" y2="-791.6" href="#P"><stop stop-color="#52bbe8"/><stop offset="1" stop-color="#e1eff8"/></linearGradient><linearGradient id="g232" x1="2187.3" y1="1514.6" x2="654.6" y2="-852" href="#P"><stop stop-color="#52bbe8"/><stop offset="1" stop-color="#e1eff8"/></linearGradient><linearGradient id="g233" x1="2219.3" y1="1443" x2="686.5" y2="-923.6" href="#P"><stop stop-color="#52bbe8"/><stop offset="1" stop-color="#e1eff8"/></linearGradient><linearGradient id="g234" x1="2266.6" y1="1511.2" x2="733.8" y2="-855.4" href="#P"><stop stop-color="#52bbe8"/><stop offset="1" stop-color="#e1eff8"/></linearGradient><linearGradient id="g235" x1="1289.4" y1="2472.9" x2="-243.4" y2="106.3" href="#P"><stop stop-color="#52bbe8"/><stop offset="1" stop-color="#e1eff8"/></linearGradient><linearGradient id="g236" x1="1237.3" y1="2407.7" x2="-295.4" y2="41.1" href="#P"><stop stop-color="#52bbe8"/><stop offset="1" stop-color="#e1eff8"/></linearGradient><linearGradient id="g237" x1="1372.9" y1="2266.1" x2="-159.9" y2="-100.5" href="#P"><stop stop-color="#52bbe8"/><stop offset="1" stop-color="#e1eff8"/></linearGradient><linearGradient id="g238" x1="1391.5" y1="2203.2" x2="-141.3" y2="-163.4" href="#P"><stop stop-color="#52bbe8"/><stop offset="1" stop-color="#e1eff8"/></linearGradient><linearGradient id="g239" x1="1495.6" y1="2132.8" x2="-37.1" y2="-233.8" href="#P"><stop stop-color="#52bbe8"/><stop offset="1" stop-color="#e1eff8"/></linearGradient><linearGradient id="g240" x1="1518.2" y1="2067.3" x2="-14.6" y2="-299.3" href="#P"><stop stop-color="#52bbe8"/><stop offset="1" stop-color="#e1eff8"/></linearGradient><linearGradient id="g241" x1="1057.6" y1="2479" x2="-475.1" y2="112.4" href="#P"><stop stop-color="#52bbe8"/><stop offset="1" stop-color="#e1eff8"/></linearGradient><linearGradient id="g242" x1="1140" y1="2473.7" x2="-392.7" y2="107" href="#P"><stop stop-color="#52bbe8"/><stop offset="1" stop-color="#e1eff8"/></linearGradient><linearGradient id="g243" x1="1269.7" y1="2335.8" x2="-263.1" y2="-30.7" href="#P"><stop stop-color="#52bbe8"/><stop offset="1" stop-color="#e1eff8"/></linearGradient><linearGradient id="g244" x1="1211.2" y1="2274.8" x2="-321.5" y2="-91.8" href="#P"><stop stop-color="#52bbe8"/><stop offset="1" stop-color="#e1eff8"/></linearGradient><linearGradient id="g245" x1="1182.2" y1="2344.6" x2="-350.6" y2="-22" href="#P"><stop stop-color="#52bbe8"/><stop offset="1" stop-color="#e1eff8"/></linearGradient><linearGradient id="g246" x1="1437.8" y1="2071.4" x2="-95" y2="-295.2" href="#P"><stop stop-color="#52bbe8"/><stop offset="1" stop-color="#e1eff8"/></linearGradient><linearGradient id="g247" x1="1855.3" y1="1588.6" x2="322.5" y2="-778" href="#P"><stop stop-color="#52bbe8"/><stop offset="1" stop-color="#e1eff8"/></linearGradient><linearGradient id="g248" x1="2012.1" y1="1583" x2="479.4" y2="-783.6" href="#P"><stop stop-color="#52bbe8"/><stop offset="1" stop-color="#e1eff8"/></linearGradient><linearGradient id="g249" x1="2028.2" y1="1521.7" x2="495.4" y2="-844.9" href="#P"><stop stop-color="#52bbe8"/><stop offset="1" stop-color="#e1eff8"/></linearGradient><linearGradient id="g250" x1="2140" y1="1446.4" x2="607.2" y2="-920.2" href="#P"><stop stop-color="#52bbe8"/><stop offset="1" stop-color="#e1eff8"/></linearGradient><linearGradient id="g251" x1="1083.3" y1="2411.5" x2="-449.5" y2="44.9" href="#P"><stop stop-color="#52bbe8"/><stop offset="1" stop-color="#e1eff8"/></linearGradient><linearGradient id="g252" x1="998.1" y1="2418.7" x2="-534.6" y2="52.1" href="#P"><stop stop-color="#52bbe8"/><stop offset="1" stop-color="#e1eff8"/></linearGradient><linearGradient id="g253" x1="1308.6" y1="2208.9" x2="-224.2" y2="-157.7" href="#P"><stop stop-color="#52bbe8"/><stop offset="1" stop-color="#e1eff8"/></linearGradient><linearGradient id="g254" x1="1343.6" y1="2135.3" x2="-189.2" y2="-231.3" href="#P"><stop stop-color="#52bbe8"/><stop offset="1" stop-color="#e1eff8"/></linearGradient><linearGradient id="g255" x1="1283.1" y1="2075.6" x2="-249.7" y2="-291" href="#P"><stop stop-color="#52bbe8"/><stop offset="1" stop-color="#e1eff8"/></linearGradient><linearGradient id="g256" x1="1252.1" y1="2146.6" x2="-280.7" y2="-220" href="#P"><stop stop-color="#52bbe8"/><stop offset="1" stop-color="#e1eff8"/></linearGradient><linearGradient id="g257" x1="1773.5" y1="1593.6" x2="240.8" y2="-773" href="#P"><stop stop-color="#52bbe8"/><stop offset="1" stop-color="#e1eff8"/></linearGradient><linearGradient id="g258" x1="1977.8" y1="1455.5" x2="445" y2="-911.2" href="#P"><stop stop-color="#52bbe8"/><stop offset="1" stop-color="#e1eff8"/></linearGradient><linearGradient id="g259" x1="1898.8" y1="1458.7" x2="366" y2="-907.9" href="#P"><stop stop-color="#52bbe8"/><stop offset="1" stop-color="#e1eff8"/></linearGradient><linearGradient id="g260" x1="868.6" y1="2458.8" x2="-630.2" y2="144.6" href="#P"><stop stop-color="#52bbe8"/><stop offset="1" stop-color="#e1eff8"/></linearGradient><linearGradient id="g261" x1="847" y1="2420.7" x2="-685.8" y2="54.1" href="#P"><stop stop-color="#52bbe8"/><stop offset="1" stop-color="#e1eff8"/></linearGradient><linearGradient id="g262" x1="942.3" y1="2356" x2="-590.5" y2="-10.6" href="#P"><stop stop-color="#52bbe8"/><stop offset="1" stop-color="#e1eff8"/></linearGradient><linearGradient id="g263" x1="1026.3" y1="2349.6" x2="-506.5" y2="-17" href="#P"><stop stop-color="#52bbe8"/><stop offset="1" stop-color="#e1eff8"/></linearGradient><linearGradient id="g264" x1="1128.4" y1="2280.5" x2="-404.4" y2="-86" href="#P"><stop stop-color="#52bbe8"/><stop offset="1" stop-color="#e1eff8"/></linearGradient><linearGradient id="g265" x1="1151" y1="2215" x2="-381.7" y2="-151.6" href="#P"><stop stop-color="#52bbe8"/><stop offset="1" stop-color="#e1eff8"/></linearGradient><linearGradient id="g266" x1="1100" y1="2149.2" x2="-432.8" y2="-217.4" href="#P"><stop stop-color="#52bbe8"/><stop offset="1" stop-color="#e1eff8"/></linearGradient><linearGradient id="g267" x1="1203" y1="2079.5" x2="-329.8" y2="-287.1" href="#P"><stop stop-color="#52bbe8"/><stop offset="1" stop-color="#e1eff8"/></linearGradient><linearGradient id="g268" x1="1669.5" y1="1663.9" x2="136.7" y2="-702.7" href="#P"><stop stop-color="#52bbe8"/><stop offset="1" stop-color="#e1eff8"/></linearGradient><linearGradient id="g269" x1="1796.7" y1="1527.7" x2="263.9" y2="-838.9" href="#P"><stop stop-color="#52bbe8"/><stop offset="1" stop-color="#e1eff8"/></linearGradient><linearGradient id="g270" x1="824.5" y1="2486.1" x2="-708.3" y2="119.5" href="#P"><stop stop-color="#52bbe8"/><stop offset="1" stop-color="#e1eff8"/></linearGradient><linearGradient id="g271" x1="967.7" y1="2288.7" x2="-565.1" y2="-77.9" href="#P"><stop stop-color="#52bbe8"/><stop offset="1" stop-color="#e1eff8"/></linearGradient><linearGradient id="g272" x1="1080.4" y1="2212.7" x2="-452.4" y2="-153.9" href="#P"><stop stop-color="#52bbe8"/><stop offset="1" stop-color="#e1eff8"/></linearGradient><linearGradient id="g273" x1="1231.1" y1="2010.4" x2="-301.7" y2="-356.1" href="#P"><stop stop-color="#52bbe8"/><stop offset="1" stop-color="#e1eff8"/></linearGradient><linearGradient id="g274" x1="1589.1" y1="1668" x2="56.3" y2="-698.6" href="#P"><stop stop-color="#52bbe8"/><stop offset="1" stop-color="#e1eff8"/></linearGradient><linearGradient id="g275" x1="1619.1" y1="1597.7" x2="86.3" y2="-768.9" href="#P"><stop stop-color="#52bbe8"/><stop offset="1" stop-color="#e1eff8"/></linearGradient><linearGradient id="g276" x1="1717" y1="1531.4" x2="184.2" y2="-835.2" href="#P"><stop stop-color="#52bbe8"/><stop offset="1" stop-color="#e1eff8"/></linearGradient><linearGradient id="g277" x1="1739.3" y1="1466" x2="206.5" y2="-900.6" href="#P"><stop stop-color="#52bbe8"/><stop offset="1" stop-color="#e1eff8"/></linearGradient></defs><style>.a{fill:url(#g1)}.b{fill:url(#g2)}.c{fill:url(#g3)}.d{fill:url(#g4)}.e{fill:url(#g5)}.f{fill:url(#g6)}.g{fill:url(#g7)}.h{fill:url(#g8)}.i{fill:url(#g9)}.j{fill:url(#g10)}.k{fill:url(#g11)}.l{fill:url(#g12)}.m{fill:url(#g13)}.n{fill:url(#g14)}.o{fill:url(#g15)}.p{fill:url(#g16)}.q{fill:url(#g17)}.r{fill:url(#g18)}.s{fill:url(#g19)}.t{fill:url(#g20)}.u{fill:url(#g21)}.v{fill:url(#g22)}.w{fill:url(#g23)}.x{fill:url(#g24)}.y{fill:url(#g25)}.z{fill:url(#g26)}.A{fill:url(#g27)}.B{fill:url(#g28)}.C{fill:url(#g29)}.D{fill:url(#g30)}.E{fill:url(#g31)}.F{fill:url(#g32)}.G{fill:url(#g33)}.H{fill:url(#g34)}.I{fill:url(#g35)}.J{fill:url(#g36)}.K{fill:url(#g37)}.L{fill:url(#g38)}.M{fill:url(#g39)}.N{fill:url(#g40)}.O{fill:url(#g41)}.P{fill:url(#g42)}.Q{fill:url(#g43)}.R{fill:url(#g44)}.S{fill:url(#g45)}.T{fill:url(#g46)}.U{fill:url(#g47)}.V{fill:url(#g48)}.W{fill:url(#g49)}.X{fill:url(#g50)}.Y{fill:url(#g51)}.Z{fill:url(#g52)}.a0{fill:url(#g53)}.a1{fill:url(#g54)}.a2{fill:url(#g55)}.a3{fill:url(#g56)}.a4{fill:url(#g57)}.a5{fill:url(#g58)}.a6{fill:url(#g59)}.a7{fill:url(#g60)}.a8{fill:url(#g61)}.a9{fill:url(#g62)}.aa{fill:url(#g63)}.ab{fill:url(#g64)}.ac{fill:url(#g65)}.ad{fill:url(#g66)}.ae{fill:url(#g67)}.af{fill:url(#g68)}.ag{fill:url(#g69)}.ah{fill:url(#g70)}.ai{fill:url(#g71)}.aj{fill:url(#g72)}.ak{fill:url(#g73)}.al{fill:url(#g74)}.am{fill:url(#g75)}.an{fill:url(#g76)}.ao{fill:url(#g77)}.ap{fill:url(#g78)}.aq{fill:url(#g79)}.ar{fill:url(#g80)}.as{fill:url(#g81)}.at{fill:url(#g82)}.au{fill:url(#g83)}.av{fill:url(#g84)}.aw{fill:url(#g85)}.ax{fill:url(#g86)}.ay{fill:url(#g87)}.az{fill:url(#g88)}.aA{fill:url(#g89)}.aB{fill:url(#g90)}.aC{fill:url(#g91)}.aD{fill:url(#g92)}.aE{fill:url(#g93)}.aF{fill:url(#g94)}.aG{fill:url(#g95)}.aH{fill:url(#g96)}.aI{fill:url(#g97)}.aJ{fill:url(#g98)}.aK{fill:url(#g99)}.aL{fill:url(#g100)}.aM{fill:url(#g101)}.aN{fill:url(#g102)}.aO{fill:url(#g103)}.aP{fill:url(#g104)}.aQ{fill:url(#g105)}.aR{fill:url(#g106)}.aS{fill:url(#g107)}.aT{fill:url(#g108)}.aU{fill:url(#g109)}.aV{fill:url(#g110)}.aW{fill:url(#g111)}.aX{fill:url(#g112)}.aY{fill:url(#g113)}.aZ{fill:url(#g114)}.b0{fill:url(#g115)}.b1{fill:url(#g116)}.b2{fill:url(#g117)}.b3{fill:url(#g118)}.b4{fill:url(#g119)}.b5{fill:url(#g120)}.b6{fill:url(#g121)}.b7{fill:url(#g122)}.b8{fill:url(#g123)}.b9{fill:url(#g124)}.ba{fill:url(#g125)}.bb{fill:url(#g126)}.bc{fill:url(#g127)}.bd{fill:url(#g128)}.be{fill:url(#g129)}.bf{fill:url(#g130)}.bg{fill:url(#g131)}.bh{fill:url(#g132)}.bi{fill:url(#g133)}.bj{fill:url(#g134)}.bk{fill:url(#g135)}.bl{fill:url(#g136)}.bm{fill:url(#g137)}.bn{fill:url(#g138)}.bo{fill:url(#g139)}.bp{fill:url(#g140)}.bq{fill:url(#g141)}.br{fill:url(#g142)}.bs{fill:url(#g143)}.bt{fill:url(#g144)}.bu{fill:url(#g145)}.bv{fill:url(#g146)}.bw{fill:url(#g147)}.bx{fill:url(#g148)}.by{fill:url(#g149)}.bz{fill:url(#g150)}.bA{fill:url(#g151)}.bB{fill:url(#g152)}.bC{fill:url(#g153)}.bD{fill:url(#g154)}.bE{fill:url(#g155)}.bF{fill:url(#g156)}.bG{fill:url(#g157)}.bH{fill:url(#g158)}.bI{fill:url(#g159)}.bJ{fill:url(#g160)}.bK{fill:url(#g161)}.bL{fill:url(#g162)}.bM{fill:url(#g163)}.bN{fill:url(#g164)}.bO{fill:url(#g165)}.bP{fill:url(#g166)}.bQ{fill:url(#g167)}.bR{fill:url(#g168)}.bS{fill:url(#g169)}.bT{fill:url(#g170)}.bU{fill:url(#g171)}.bV{fill:url(#g172)}.bW{fill:url(#g173)}.bX{fill:url(#g174)}.bY{fill:url(#g175)}.bZ{fill:url(#g176)}.c0{fill:url(#g177)}.c1{fill:url(#g178)}.c2{fill:url(#g179)}.c3{fill:url(#g180)}.c4{fill:url(#g181)}.c5{fill:url(#g182)}.c6{fill:url(#g183)}.c7{fill:url(#g184)}.c8{fill:url(#g185)}.c9{fill:url(#g186)}.ca{fill:url(#g187)}.cb{fill:url(#g188)}.cc{fill:url(#g189)}.cd{fill:url(#g190)}.ce{fill:url(#g191)}.cf{fill:url(#g192)}.cg{fill:url(#g193)}.ch{fill:url(#g194)}.ci{fill:url(#g195)}.cj{fill:url(#g196)}.ck{fill:url(#g197)}.cl{fill:url(#g198)}.cm{fill:url(#g199)}.cn{fill:url(#g200)}.co{fill:url(#g201)}.cp{fill:url(#g202)}.cq{fill:url(#g203)}.cr{fill:url(#g204)}.cs{fill:url(#g205)}.ct{fill:url(#g206)}.cu{fill:url(#g207)}.cv{fill:url(#g208)}.cw{fill:url(#g209)}.cx{fill:url(#g210)}.cy{fill:url(#g211)}.cz{fill:url(#g212)}.cA{fill:url(#g213)}.cB{fill:url(#g214)}.cC{fill:url(#g215)}.cD{fill:url(#g216)}.cE{fill:url(#g217)}.cF{fill:url(#g218)}.cG{fill:url(#g219)}.cH{fill:url(#g220)}.cI{fill:url(#g221)}.cJ{fill:url(#g222)}.cK{fill:url(#g223)}.cL{fill:url(#g224)}.cM{fill:url(#g225)}.cN{fill:url(#g226)}.cO{fill:url(#g227)}.cP{fill:url(#g228)}.cQ{fill:url(#g229)}.cR{fill:url(#g230)}.cS{fill:url(#g231)}.cT{fill:url(#g232)}.cU{fill:url(#g233)}.cV{fill:url(#g234)}.cW{fill:url(#g235)}.cX{fill:url(#g236)}.cY{fill:url(#g237)}.cZ{fill:url(#g238)}.d0{fill:url(#g239)}.d1{fill:url(#g240)}.d2{fill:url(#g241)}.d3{fill:url(#g242)}.d4{fill:url(#g243)}.d5{fill:url(#g244)}.d6{fill:url(#g245)}.d7{fill:url(#g246)}.d8{fill:url(#g247)}.d9{fill:url(#g248)}.da{fill:url(#g249)}.db{fill:url(#g250)}.dc{fill:url(#g251)}.dd{fill:url(#g252)}.de{fill:url(#g253)}.df{fill:url(#g254)}.dg{fill:url(#g255)}.dh{fill:url(#g256)}.di{fill:url(#g257)}.dj{fill:url(#g258)}.dk{fill:url(#g259)}.dl{fill:url(#g260)}.dm{fill:url(#g261)}.dn{fill:url(#g262)}.do{fill:url(#g263)}.dp{fill:url(#g264)}.dq{fill:url(#g265)}.dr{fill:url(#g266)}.ds{fill:url(#g267)}.dt{fill:url(#g268)}.du{fill:url(#g269)}.dv{fill:url(#g270)}.dw{fill:url(#g271)}.dx{fill:url(#g272)}.dy{fill:url(#g273)}.dz{fill:url(#g274)}.dA{fill:url(#g275)}.dB{fill:url(#g276)}.dC{fill:url(#g277)}</style><path class="a" d="m0 0h1584v1152h-1584z"/><g style="mix-blend-mode:multiply"><path fill-rule="evenodd" class="b" d="m920 232.4l-0.2-0.1-89.1-51.4v-103.2l0.1-0.1 89.2-51.4 0.2 0.1 89.1 51.4v103.2l-0.2 0.1zm-88.6-52l88.6 51.1 88.5-51.1v-102.3l-88.5-51.1-88.6 51.1z"/><path fill-rule="evenodd" class="c" d="m1097.8 232.4l-0.2-0.1-89.1-51.4v-103.2l0.2-0.1 89.1-51.4 0.2 0.1 89.1 51.4v103.2l-0.2 0.1zm-88.5-52l88.5 51.1 88.6-51.1v-102.3l-88.6-51.1-88.5 51.1z"/><path fill-rule="evenodd" class="d" d="m1275.7 232.4l-0.2-0.1-89.1-51.4v-103.2l0.1-0.1 89.2-51.4 0.2 0.1 89.1 51.4v103.2l-0.2 0.1zm-88.6-52l88.6 51.1 88.5-51.1v-102.3l-88.5-51.1-88.6 51.1z"/><path fill-rule="evenodd" class="e" d="m1453.5 232.4l-0.2-0.1-89.1-51.4v-103.2l0.2-0.1 89.1-51.4 0.2 0.1 89.1 51.4v103.2l-0.2 0.1zm-88.5-52l88.5 51.1 88.6-51.1v-102.3l-88.6-51.1-88.5 51.1z"/><path class="f" d="m1653.2 218.9l-21.8 12.6-88.6-51.1v-102.2l88.6-51.1 21.8 12.6v-0.9l-21.6-12.5-0.2-0.1-89.2 51.4-0.1 0.1v103.2l89.1 51.4 0.2 0.1 21.8-12.6z"/><path fill-rule="evenodd" class="g" d="m119.6 386.4l-0.2-0.1-89.1-51.4v-103.1l0.2-0.2 89.1-51.4 0.2 0.1 89.1 51.5v103.1l-0.1 0.1zm-88.6-52l88.6 51.1 88.5-51.1v-102.3l-88.5-51.1-88.6 51.1z"/><path fill-rule="evenodd" class="h" d="m1008.9 386.4l-0.2-0.1-89.1-51.4v-103.1l0.2-0.2 89.1-51.4 0.2 0.1 89.1 51.5v103.1l-0.2 0.1zm-88.5-52l88.5 51.1 88.5-51.1v-102.3l-88.5-51.1-88.5 51.1z"/><path fill-rule="evenodd" class="i" d="m1186.7 386.4l-0.2-0.1-89.1-51.4v-103.1l0.2-0.2 89.1-51.4 0.2 0.1 89.2 51.5v103.1l-0.2 0.1zm-88.6-52l88.6 51.1 88.5-51.1v-102.3l-88.5-51.1-88.6 51.1z"/><path fill-rule="evenodd" class="j" d="m1364.6 386.4l-0.2-0.1-89.1-51.4v-103.1l0.2-0.2 89.1-51.4 0.2 0.1 89.1 51.5v103.1l-0.2 0.1zm-88.5-52l88.5 51.1 88.6-51.1v-102.3l-88.6-51.1-88.5 51.1z"/><path fill-rule="evenodd" class="k" d="m1542.4 386.4l-0.2-0.1-89.1-51.4v-103.1l0.2-0.2 89.1-51.4 0.2 0.1 89.2 51.5v103.1l-0.2 0.1zm-88.6-52l88.6 51.1 88.5-51.1v-102.3l-88.5-51.1-88.6 51.1z"/><path class="l" d="m1653.2 346.8l-21.4-12.4v-102.2l21.4-12.4v-0.9l-22 12.7-0.2 0.2v103.1l22.2 12.8z"/><path fill-rule="evenodd" class="m" d="m1275.7 540.5l-0.2-0.1-89.1-51.5v-103.1l0.1-0.1 89.2-51.5 0.2 0.1 89.1 51.5v103.1l-0.2 0.1zm-88.6-52l88.6 51.1 88.5-51.1v-102.2l-88.5-51.1-88.6 51.1z"/><path fill-rule="evenodd" class="n" d="m1453.5 540.5l-0.2-0.1-89.1-51.5v-103.1l0.2-0.1 89.1-51.5 0.2 0.1 89.1 51.5v103.1l-0.2 0.1zm-88.5-52l88.5 51.1 88.6-51.1v-102.2l-88.6-51.1-88.5 51.1z"/><path class="o" d="m1653.2 527l-21.8 12.6-88.6-51.1v-102.3l88.6-51.1 21.8 12.6v-0.9l-21.6-12.5-0.2-0.1-89.2 51.5-0.1 0.1v103.1l89.1 51.5 0.2 0.1 21.8-12.6z"/><path fill-rule="evenodd" class="p" d="m1364.6 694.5l-0.2-0.1-89.1-51.5v-103.1l0.2-0.1 89.1-51.5 0.2 0.1 89.1 51.5v103.1l-0.2 0.1zm-88.5-52l88.5 51.1 88.6-51.1v-102.2l-88.6-51.1-88.5 51.1z"/><path fill-rule="evenodd" class="q" d="m1542.4 694.5l-0.2-0.1-89.1-51.5v-103.1l0.2-0.1 89.1-51.5 0.2 0.1 89.2 51.5v103.1l-0.2 0.1zm-88.6-52l88.6 51.1 88.5-51.1v-102.2l-88.5-51.1-88.6 51.1z"/><path class="r" d="m1653.2 654.9l-21.4-12.4v-102.3l21.4-12.3v-0.9l-22 12.7-0.2 0.1v103.1l22.2 12.9z"/><path fill-rule="evenodd" class="s" d="m208.6 848.5l-0.2-0.1-89.2-51.4v-103.2l0.2-0.1 89.2-51.4 0.2 0.1 89.1 51.4v103.2l-0.2 0.1zm-88.6-52l88.6 51.1 88.5-51.1v-102.3l-88.5-51.1-88.6 51.1z"/><path fill-rule="evenodd" class="t" d="m1453.5 848.5l-0.2-0.1-89.1-51.4v-103.2l0.2-0.1 89.1-51.4 0.2 0.1 89.1 51.4v103.2l-0.2 0.1zm-88.5-52l88.5 51.1 88.6-51.1v-102.3l-88.6-51.1-88.5 51.1z"/><path class="u" d="m1653.2 835l-21.8 12.6-88.6-51.1v-102.2l88.6-51.1 21.8 12.6v-0.9l-21.6-12.5-0.2-0.1-89.2 51.4-0.1 0.1v103.2l89.1 51.4 0.2 0.1 21.8-12.6z"/><path fill-rule="evenodd" class="v" d="m119.6 1002.5l-0.2-0.1-89.1-51.4v-103.2l0.2-0.1 89.1-51.4 0.2 0.1 89.1 51.4v103.2l-0.1 0.1zm-88.6-52l88.6 51.1 88.5-51.1v-102.3l-88.5-51.1-88.6 51.1z"/><path fill-rule="evenodd" class="w" d="m297.5 1002.5l-0.2-0.1-89.1-51.4v-103.2l0.2-0.1 89.1-51.4 0.2 0.1 89.1 51.4v103.2l-0.2 0.1zm-88.5-52l88.5 51.1 88.5-51.1v-102.3l-88.5-51.1-88.5 51.1z"/><path fill-rule="evenodd" class="x" d="m475.3 1002.5l-0.2-0.1-89.1-51.4v-103.2l0.2-0.1 89.1-51.4 0.2 0.1 89.1 51.4v103.2l-0.1 0.1zm-88.6-52l88.6 51.1 88.5-51.1v-102.3l-88.5-51.1-88.6 51.1z"/><path fill-rule="evenodd" class="y" d="m653.2 1002.5l-0.2-0.1-89.1-51.4v-103.2l0.2-0.1 89.1-51.4 0.2 0.1 89.1 51.4v103.2l-0.2 0.1zm-88.5-52l88.5 51.1 88.5-51.1v-102.3l-88.5-51.1-88.5 51.1z"/><path class="z" d="m1653.2 962.9l-21.4-12.4v-102.2l21.4-12.4v-0.9l-22 12.7-0.2 0.1v103.2l22.2 12.8z"/><path fill-rule="evenodd" class="A" d="m208.6 1156.6l-0.2-0.1-89.2-51.5v-103.1l0.2-0.1 89.2-51.5 0.2 0.1 89.1 51.5v103.1l-0.2 0.1zm-88.6-52l88.6 51.1 88.5-51.1v-102.2l-88.5-51.2-88.6 51.2z"/><path fill-rule="evenodd" class="B" d="m386.4 1156.6l-0.2-0.1-89.1-51.5v-103.1l0.2-0.1 89.1-51.5 0.2 0.1 89.1 51.5v103.1l-0.2 0.1zm-88.5-52l88.5 51.1 88.6-51.1v-102.2l-88.6-51.2-88.5 51.2z"/><path fill-rule="evenodd" class="C" d="m564.3 1156.6l-0.2-0.1-89.2-51.5v-103.1l0.2-0.1 89.2-51.5 0.2 0.1 89.1 51.5v103.1l-0.2 0.1zm-88.6-52l88.6 51.1 88.5-51.1v-102.2l-88.5-51.2-88.6 51.2z"/><path class="D" d="m31.1 1214.1v-57.8l88.5-51.1 88.6 51.1v57.8h0.7v-58.2l-89.1-51.5-0.2-0.1-89.1 51.5-0.2 0.1v58.2z"/><path class="E" d="m208.9 1214.1v-57.8l88.6-51.1 88.5 51.1v57.8h0.8v-58.2l-89.1-51.5-0.2-0.1-89.1 51.5-0.2 0.1v58.2z"/><path class="F" d="m386.8 1214.1v-57.8l88.5-51.1 88.6 51.1v57.8h0.7v-58.2l-89.1-51.5-0.2-0.1-89.1 51.5-0.2 0.1v58.2z"/><path class="G" d="m564.6 1214.1v-57.8l88.6-51.1 88.5 51.1v57.8h0.8v-58.2l-89.1-51.5-0.2-0.1-89.1 51.5-0.2 0.1v58.2z"/><path class="H" d="m1276.1 1214.1v-57.8l88.5-51.1 88.5 51.1v57.8h0.8v-58.2l-89.1-51.5-0.2-0.1-89.1 51.5-0.2 0.1v58.2z"/><path class="I" d="m1453.9 1214.1v-57.8l88.5-51.1 88.6 51.1v57.8h0.8v-58.2l-89.2-51.5-0.2-0.1-89.1 51.5-0.2 0.1v58.2z"/><path class="J" d="m1248.4-138.9v87.5l-113.8 65.8-113.9-65.8v-87.5h-4v89.8l117.9 68.1 117.9-68.1v-89.8z"/><path class="K" d="m1480.2-138.9v87.5l-113.8 65.8-113.9-65.8v-87.5h-4.1v89.8l118 68.1 117.9-68.1v-89.8z"/><path class="L" d="m1484.3-51.4v-87.5h-4.1v89.8l117.9 68.1 55.1-31.8v-4.6l-55.1 31.8z"/><path fill-rule="evenodd" class="M" d="m1250.5 219.7l-118-68v-136.2l118-68.1 117.9 68.1v136.2zm-113.9-70.4l113.9 65.7 113.8-65.7v-131.5l-113.8-65.8-113.9 65.8z"/><path fill-rule="evenodd" class="N" d="m1482.2 219.7l-117.9-68v-136.2l117.9-68.1 117.9 68.1v136.2zm-113.8-70.4l113.8 65.7 113.9-65.7v-131.5l-113.9-65.8-113.8 65.8z"/><path class="O" d="m1653.2 180l-53.1-30.7v-131.5l53.1-30.6v-4.6l-57.1 32.9v136.2l57.1 32.9z"/><path fill-rule="evenodd" class="P" d="m1366.4 420.5l-118-68.1v-136.2l118-68 117.9 68v136.2zm-113.9-70.4l113.9 65.7 113.8-65.7v-131.5l-113.8-65.8-113.9 65.8z"/><path class="Q" d="m1653.2 384l-55.1 31.8-113.8-65.7v-131.5l113.8-65.8 55.1 31.8v-4.6l-55.1-31.8-117.9 68v136.2l117.9 68.1 55.1-31.8z"/><path class="R" d="m-80.6 383.4v4.6l54.2 31.3v131.5l-54.2 31.3v4.6l58.2-33.6v-136.1z"/><path fill-rule="evenodd" class="S" d="m91.5 621.2l-117.9-68.1v-136.1l117.9-68.1 117.9 68.1v136.1zm-113.9-70.4l113.9 65.8 113.9-65.8v-131.5l-113.9-65.7-113.9 65.7z"/><path fill-rule="evenodd" class="T" d="m323.3 621.2l-117.9-68.1v-136.1l117.9-68.1 117.9 68.1v136.1zm-113.9-70.4l113.9 65.8 113.9-65.8v-131.5l-113.9-65.7-113.9 65.7z"/><path class="U" d="m1653.2 581.4l-53.1-30.6v-131.5l53.1-30.6v-4.7l-57.1 33v136.1l57.1 33z"/><path class="V" d="m-24.4 549.6l-56.2 32.5v4.6l56.2-32.4 113.9 65.7v131.5l-113.9 65.8-56.2-32.5v4.7l56.2 32.4 117.9-68v-136.2z"/><path fill-rule="evenodd" class="W" d="m207.4 821.9l-117.9-68v-136.2l117.9-68.1 117.9 68.1v136.2zm-113.9-70.4l113.9 65.7 113.9-65.7v-131.5l-113.9-65.8-113.9 65.8z"/><path fill-rule="evenodd" class="X" d="m439.2 821.9l-117.9-68v-136.2l117.9-68.1 117.9 68.1v136.2zm-113.9-70.4l113.9 65.7 113.9-65.7v-131.5l-113.9-65.8-113.9 65.8z"/><path class="Y" d="m-80.6 784.8v4.7l54.2 31.3v131.5l-54.2 31.3v4.6l58.2-33.6v-136.1z"/><path fill-rule="evenodd" class="Z" d="m91.5 1022.7l-117.9-68.1v-136.1l117.9-68.1 117.9 68.1v136.1zm-113.9-70.4l113.9 65.8 113.9-65.8v-131.5l-113.9-65.7-113.9 65.7z"/><path fill-rule="evenodd" class="a0" d="m323.3 1022.7l-117.9-68.1v-136.1l117.9-68.1 117.9 68.1v136.1zm-113.9-70.4l113.9 65.8 113.9-65.8v-131.5l-113.9-65.7-113.9 65.7z"/><path fill-rule="evenodd" class="a1" d="m1482.2 1022.7l-117.9-68.1v-136.1l117.9-68.1 117.9 68.1v136.1zm-113.8-70.4l113.8 65.8 113.9-65.8v-131.5l-113.9-65.7-113.8 65.7z"/><path class="a2" d="m-80.6 1191l40.1 23.1h8.1l-48.2-27.8z"/><path class="a3" d="m-24.4 951.1l-56.2 32.5v4.6l56.2-32.4 113.9 65.7v131.5l-105.8 61.1h8l101.8-58.8v-136.1z"/><path class="a4" d="m199.4 1214.1l-105.9-61.1v-131.5l113.9-65.7 113.9 65.7v131.5l-105.8 61.1h8l101.8-58.8v-136.1l-117.9-68.1-117.9 68.1v136.1l101.8 58.8z"/><path class="a5" d="m431.1 1214.1l-105.8-61.1v-131.5l113.9-65.7 113.9 65.7v131.5l-105.9 61.1h8.1l101.8-58.8v-136.1l-117.9-68.1-117.9 68.1v136.1l101.8 58.8z"/><path class="a6" d="m1358.3 1214.1l-105.8-61.1v-131.5l113.9-65.7 113.8 65.7v131.5l-105.8 61.1h8l101.9-58.8v-136.1l-117.9-68.1-118 68.1v136.1l101.9 58.8z"/><path class="a7" d="m1598.1 955.8l55.1 31.8v-4.7l-55.1-31.8-117.9 68.1v136.1l101.8 58.8h8.1l-105.8-61.1v-131.5z"/><path class="a8" d="m1653.2 1187l-47 27.1h8l39-22.5z"/><path class="a9" d="m-80.6 1186.3v4.7l40.1 23.1h8.1z"/><path class="aa" d="m-8.3 1214.1l99.8-57.6 99.8 57.6h8.1l-107.9-62.3-107.8 62.3z"/><path class="ab" d="m223.5 1214.1l99.8-57.6 99.8 57.6h8l-107.8-62.3-107.8 62.3z"/><path class="ac" d="m455.3 1214.1l99.8-57.6 99.8 57.6h8l-107.8-62.3-107.9 62.3z"/><path class="ad" d="m687.1 1214.1l99.8-57.6 99.8 57.6h8l-107.8-62.3-107.9 62.3z"/><path class="ae" d="m918.9 1214.1l99.8-57.6 99.8 57.6h8l-107.8-62.3-107.9 62.3z"/><path class="af" d="m1150.7 1214.1l99.8-57.6 99.8 57.6h8l-107.8-62.3-107.9 62.3z"/><path class="ag" d="m1382.4 1214.1l99.8-57.6 99.8 57.6h8.1l-107.9-62.3-107.8 62.3z"/><path class="ah" d="m1653.2 1187l-47 27.1h8l39-22.5z"/><path class="ai" d="m208.6 238.4c3.5 0 6.4-2.9 6.4-6.4 0-3.6-2.9-6.4-6.4-6.4-3.6 0-6.4 2.8-6.4 6.4 0 3.5 2.8 6.4 6.4 6.4z"/><path class="aj" d="m742.1 27.7c0.6 0 1.1-0.5 1.1-1.1 0-0.6-0.5-1.1-1.1-1.1-0.6 0-1.1 0.5-1.1 1.1 0 0.6 0.5 1.1 1.1 1.1z"/><path class="ak" d="m831 65.7c-6.7 0-12.2 5.5-12.2 12.3 0 6.7 5.5 12.2 12.2 12.2 6.8 0 12.3-5.5 12.3-12.2 0-6.8-5.5-12.3-12.3-12.3z"/><path class="al" d="m831 188.3c4.3 0 7.7-3.4 7.7-7.7 0-4.2-3.4-7.6-7.7-7.6-4.2 0-7.6 3.4-7.6 7.6 0 4.3 3.4 7.7 7.6 7.7z"/><path class="am" d="m920 238.9c3.8 0 6.9-3.1 6.9-6.9 0-3.8-3.1-6.9-6.9-6.9-3.8 0-6.9 3.1-6.9 6.9 0 3.8 3.1 6.9 6.9 6.9z"/><path class="an" d="m920 30.2c1.9 0 3.5-1.6 3.5-3.6 0-2-1.6-3.5-3.5-3.5-2 0-3.6 1.5-3.6 3.5 0 2 1.6 3.6 3.6 3.6z"/><path class="ao" d="m1008.9 85c3.9 0 7-3.2 7-7 0-3.9-3.1-7.1-7-7.1-3.9 0-7 3.2-7 7.1 0 3.8 3.1 7 7 7z"/><path class="ap" d="m1008.9 168.3c-6.8 0-12.4 5.5-12.4 12.3 0 6.9 5.6 12.4 12.4 12.4 6.8 0 12.3-5.5 12.3-12.4 0-6.8-5.5-12.3-12.3-12.3z"/><path class="aq" d="m1097.8 31.8c2.9 0 5.2-2.3 5.2-5.2 0-2.9-2.3-5.2-5.2-5.2-2.9 0-5.2 2.3-5.2 5.2 0 2.9 2.3 5.2 5.2 5.2z"/><path class="ar" d="m1186.7 87.5c5.3 0 9.6-4.2 9.6-9.5 0-5.3-4.3-9.6-9.6-9.6-5.3 0-9.6 4.3-9.6 9.6 0 5.3 4.3 9.5 9.6 9.5z"/><path class="as" d="m1186.7 192.1c6.4 0 11.5-5.1 11.5-11.5 0-6.3-5.1-11.4-11.5-11.4-6.3 0-11.4 5.1-11.4 11.4 0 6.4 5.1 11.5 11.4 11.5z"/><path class="at" d="m1275.7 32.6c3.3 0 6-2.7 6-6 0-3.3-2.7-6-6-6-3.3 0-6 2.7-6 6 0 3.3 2.7 6 6 6z"/><path class="au" d="m1364.6 84.8c3.8 0 6.9-3 6.9-6.8 0-3.8-3.1-6.9-6.9-6.9-3.8 0-6.9 3.1-6.9 6.9 0 3.8 3.1 6.8 6.9 6.8z"/><path class="av" d="m1364.6 185.5c2.7 0 4.9-2.2 4.9-4.9 0-2.7-2.2-4.9-4.9-4.9-2.7 0-4.9 2.2-4.9 4.9 0 2.7 2.2 4.9 4.9 4.9z"/><path class="aw" d="m1453.5 31.2c2.6 0 4.6-2 4.6-4.6 0-2.5-2-4.6-4.6-4.6-2.5 0-4.6 2.1-4.6 4.6 0 2.6 2.1 4.6 4.6 4.6z"/><path class="ax" d="m1542.4 85.2c4.1 0 7.3-3.2 7.3-7.2 0-4.1-3.2-7.3-7.3-7.3-4 0-7.2 3.2-7.2 7.3 0 4 3.2 7.2 7.2 7.2z"/><path class="ay" d="m1542.4 188.9c4.6 0 8.3-3.7 8.3-8.3 0-4.5-3.7-8.2-8.3-8.2-4.5 0-8.2 3.7-8.2 8.2 0 4.6 3.7 8.3 8.2 8.3z"/><path class="az" d="m1631.4 33.6c3.8 0 6.9-3.1 6.9-7 0-3.8-3.1-6.9-6.9-6.9-3.9 0-7 3.1-7 6.9 0 3.9 3.1 7 7 7z"/><path class="aA" d="m119.6 377.8c-4.5 0-8.1 3.7-8.1 8.2 0 4.5 3.6 8.2 8.1 8.2 4.6 0 8.2-3.7 8.2-8.2 0-4.5-3.6-8.2-8.2-8.2z"/><path class="aB" d="m30.7 339.8c2.9 0 5.2-2.3 5.2-5.1 0-2.9-2.3-5.2-5.2-5.2-2.8 0-5.1 2.3-5.1 5.2 0 2.8 2.3 5.1 5.1 5.1z"/><path class="aC" d="m30.7 235.9c2.2 0 3.9-1.8 3.9-3.9 0-2.2-1.7-3.9-3.9-3.9-2.1 0-3.9 1.7-3.9 3.9 0 2.1 1.8 3.9 3.9 3.9z"/><path class="aD" d="m119.6 168.7c-6.6 0-11.9 5.3-11.9 11.9 0 6.6 5.3 12 11.9 12 6.6 0 12-5.4 12-12 0-6.6-5.4-11.9-12-11.9z"/><path class="aE" d="m208.6 344.7c5.5 0 10-4.5 10-10 0-5.6-4.5-10.1-10-10.1-5.6 0-10.1 4.5-10.1 10.1 0 5.5 4.5 10 10.1 10z"/><path class="aF" d="m920 343.9c5.1 0 9.2-4.1 9.2-9.2 0-5.2-4.1-9.3-9.2-9.3-5.2 0-9.3 4.1-9.3 9.3 0 5.1 4.1 9.2 9.3 9.2z"/><path class="aG" d="m1097.8 227.2c-2.6 0-4.7 2.2-4.7 4.8 0 2.6 2.1 4.7 4.7 4.7 2.6 0 4.8-2.1 4.8-4.7 0-2.6-2.2-4.8-4.8-4.8z"/><path class="aH" d="m1097.8 343.5c4.9 0 8.8-4 8.8-8.8 0-4.9-3.9-8.8-8.8-8.8-4.8 0-8.8 3.9-8.8 8.8 0 4.8 4 8.8 8.8 8.8z"/><path class="aI" d="m1192.3 386c0-3.1-2.5-5.6-5.6-5.6-3 0-5.5 2.5-5.5 5.6 0 3.1 2.5 5.6 5.5 5.6 3.1 0 5.6-2.5 5.6-5.6z"/><path class="aJ" d="m1275.7 219c-7.2 0-13 5.8-13 13 0 7.2 5.8 13 13 13 7.1 0 13-5.8 13-13 0-7.2-5.9-13-13-13z"/><path class="aK" d="m1453.5 241.6c5.3 0 9.7-4.3 9.7-9.6 0-5.3-4.4-9.7-9.7-9.7-5.3 0-9.6 4.4-9.6 9.7 0 5.3 4.3 9.6 9.6 9.6z"/><path class="aL" d="m1542.4 395.6c5.3 0 9.6-4.3 9.6-9.6 0-5.3-4.3-9.6-9.6-9.6-5.3 0-9.6 4.3-9.6 9.6 0 5.3 4.3 9.6 9.6 9.6z"/><path class="aM" d="m1453.5 346c6.3 0 11.3-5.1 11.3-11.3 0-6.3-5-11.4-11.3-11.4-6.2 0-11.3 5.1-11.3 11.4 0 6.2 5.1 11.3 11.3 11.3z"/><path class="aN" d="m1631.4 242.3c5.7 0 10.3-4.6 10.3-10.3 0-5.7-4.6-10.3-10.3-10.3-5.7 0-10.3 4.6-10.3 10.3 0 5.7 4.6 10.3 10.3 10.3z"/><path class="aO" d="m1016.3 386c0-4.1-3.3-7.4-7.4-7.4-4.1 0-7.4 3.3-7.4 7.4 0 4.1 3.3 7.4 7.4 7.4 4.1 0 7.4-3.3 7.4-7.4z"/><path class="aP" d="m1281.6 334.7c0-3.3-2.6-6-5.9-6-3.3 0-6 2.7-6 6 0 3.2 2.7 5.9 6 5.9 3.3 0 5.9-2.7 5.9-5.9z"/><path class="aQ" d="m1364.6 392.4c3.5 0 6.4-2.9 6.4-6.4 0-3.5-2.9-6.4-6.4-6.4-3.5 0-6.4 2.9-6.4 6.4 0 3.5 2.9 6.4 6.4 6.4z"/><path class="aR" d="m1631.4 533.7c-3.5 0-6.4 2.8-6.4 6.3 0 3.5 2.9 6.3 6.4 6.3 3.5 0 6.3-2.8 6.3-6.3 0-3.5-2.8-6.3-6.3-6.3z"/><path class="aS" d="m1542.4 480.5c-4.5 0-8.2 3.6-8.2 8.2 0 4.5 3.7 8.2 8.2 8.2 4.6 0 8.3-3.7 8.3-8.2 0-4.6-3.7-8.2-8.3-8.2z"/><path class="aT" d="m1631.4 326.8c-4.4 0-7.9 3.5-7.9 7.9 0 4.3 3.5 7.8 7.9 7.8 4.3 0 7.8-3.5 7.8-7.8 0-4.4-3.5-7.9-7.8-7.9z"/><path class="aU" d="m119.6 684.7c-5.1 0-9.3 4.2-9.3 9.3 0 5.2 4.2 9.4 9.3 9.4 5.2 0 9.4-4.2 9.4-9.4 0-5.1-4.2-9.3-9.4-9.3z"/><path class="aV" d="m31.5 642.7c0-0.4-0.3-0.8-0.8-0.8-0.4 0-0.8 0.4-0.8 0.8 0 0.5 0.4 0.8 0.8 0.8 0.5 0 0.8-0.3 0.8-0.8z"/><path class="aW" d="m30.7 532.6c-4.1 0-7.5 3.3-7.5 7.4 0 4.1 3.4 7.5 7.5 7.5 4.1 0 7.5-3.4 7.5-7.5 0-4.1-3.4-7.4-7.5-7.4z"/><path class="aX" d="m119.6 482.2c-3.5 0-6.4 2.9-6.4 6.5 0 3.5 2.9 6.4 6.4 6.4 3.6 0 6.5-2.9 6.5-6.4 0-3.6-2.9-6.5-6.5-6.5z"/><path class="aY" d="m291.7 694c0 3.3 2.6 5.9 5.8 5.9 3.2 0 5.8-2.6 5.8-5.9 0-3.2-2.6-5.8-5.8-5.8-3.2 0-5.8 2.6-5.8 5.8z"/><path class="aZ" d="m1186.7 479.2c-5.2 0-9.5 4.2-9.5 9.5 0 5.2 4.3 9.5 9.5 9.5 5.3 0 9.5-4.3 9.5-9.5 0-5.3-4.2-9.5-9.5-9.5z"/><path class="b0" d="m1265.8 540c0 5.5 4.4 9.9 9.9 9.9 5.4 0 9.8-4.4 9.8-9.9 0-5.4-4.4-9.8-9.8-9.8-5.5 0-9.9 4.4-9.9 9.8z"/><path class="b1" d="m1364.6 700c3.3 0 6-2.7 6-6 0-3.2-2.7-5.9-6-5.9-3.3 0-6 2.7-6 5.9 0 3.3 2.7 6 6 6z"/><path class="b2" d="m1275.7 634.9c-4.3 0-7.8 3.5-7.8 7.8 0 4.3 3.5 7.8 7.8 7.8 4.3 0 7.7-3.5 7.7-7.8 0-4.3-3.4-7.8-7.7-7.8z"/><path class="b3" d="m1364.6 497c4.6 0 8.3-3.7 8.3-8.3 0-4.6-3.7-8.3-8.3-8.3-4.6 0-8.3 3.7-8.3 8.3 0 4.6 3.7 8.3 8.3 8.3z"/><path class="b4" d="m1453.5 654.5c6.5 0 11.8-5.3 11.8-11.8 0-6.5-5.3-11.8-11.8-11.8-6.5 0-11.8 5.3-11.8 11.8 0 6.5 5.3 11.8 11.8 11.8z"/><path class="b5" d="m1542.4 700.7c3.7 0 6.7-3 6.7-6.7 0-3.6-3-6.6-6.7-6.6-3.6 0-6.6 3-6.6 6.6 0 3.7 3 6.7 6.6 6.7z"/><path class="b6" d="m1453.5 551.7c6.5 0 11.7-5.2 11.7-11.7 0-6.4-5.2-11.6-11.7-11.6-6.4 0-11.6 5.2-11.6 11.6 0 6.5 5.2 11.7 11.6 11.7z"/><path class="b7" d="m1631.4 637.4c-2.9 0-5.3 2.4-5.3 5.3 0 2.9 2.4 5.3 5.3 5.3 2.9 0 5.3-2.4 5.3-5.3 0-2.9-2.4-5.3-5.3-5.3z"/><path class="b8" d="m208.6 654c6.2 0 11.3-5 11.3-11.3 0-6.3-5.1-11.3-11.3-11.3-6.3 0-11.4 5-11.4 11.3 0 6.3 5.1 11.3 11.4 11.3z"/><path class="b9" d="m297.5 806.4c5.3 0 9.6-4.3 9.6-9.7 0-5.3-4.3-9.6-9.6-9.6-5.3 0-9.6 4.3-9.6 9.6 0 5.4 4.3 9.7 9.6 9.7z"/><path class="ba" d="m479.9 796.7c0-2.5-2-4.5-4.6-4.5-2.5 0-4.5 2-4.5 4.5 0 2.6 2 4.6 4.5 4.6 2.6 0 4.6-2 4.6-4.6z"/><path class="bb" d="m564.3 856.9c4.9 0 8.8-3.9 8.8-8.8 0-4.9-3.9-8.9-8.8-8.9-4.9 0-8.9 4-8.9 8.9 0 4.9 4 8.8 8.9 8.8z"/><path class="bc" d="m661.7 796.7c0-4.7-3.8-8.5-8.5-8.5-4.7 0-8.6 3.8-8.6 8.5 0 4.8 3.9 8.6 8.6 8.6 4.7 0 8.5-3.8 8.5-8.6z"/><path class="bd" d="m742.1 858.1c5.5 0 10-4.5 10-10 0-5.6-4.5-10-10-10-5.5 0-10 4.4-10 10 0 5.5 4.5 10 10 10z"/><path class="be" d="m119.6 996.3c-3.2 0-5.7 2.6-5.7 5.8 0 3.2 2.5 5.8 5.7 5.8 3.2 0 5.8-2.6 5.8-5.8 0-3.2-2.6-5.8-5.8-5.8z"/><path class="bf" d="m30.7 946.1c-2.5 0-4.6 2.1-4.6 4.7 0 2.5 2.1 4.6 4.6 4.6 2.6 0 4.6-2.1 4.6-4.6 0-2.6-2-4.7-4.6-4.7z"/><path class="bg" d="m28.5 848.1c0 1.2 1 2.2 2.2 2.2 1.2 0 2.2-1 2.2-2.2 0-1.2-1-2.2-2.2-2.2-1.2 0-2.2 1-2.2 2.2z"/><path class="bh" d="m128.7 796.7c0-5-4.1-9-9.1-9-5 0-9 4-9 9 0 5 4 9.1 9 9.1 5 0 9.1-4.1 9.1-9.1z"/><path class="bi" d="m201.1 950.8c0 4.1 3.3 7.4 7.5 7.4 4.1 0 7.4-3.3 7.4-7.4 0-4.2-3.3-7.5-7.4-7.5-4.2 0-7.5 3.3-7.5 7.5z"/><path class="bj" d="m213.7 848.1c0-2.9-2.3-5.1-5.1-5.1-2.9 0-5.2 2.2-5.2 5.1 0 2.8 2.3 5.1 5.2 5.1 2.8 0 5.1-2.3 5.1-5.1z"/><path class="bk" d="m386.4 843.9c-2.3 0-4.2 1.9-4.2 4.2 0 2.3 1.9 4.2 4.2 4.2 2.3 0 4.2-1.9 4.2-4.2 0-2.3-1.9-4.2-4.2-4.2z"/><path class="bl" d="m468.3 1002.1c0 3.9 3.1 7 7 7 3.9 0 7.1-3.1 7.1-7 0-3.9-3.2-7-7.1-7-3.9 0-7 3.1-7 7z"/><path class="bm" d="m386.4 940.6c-5.6 0-10.1 4.6-10.1 10.2 0 5.6 4.5 10.1 10.1 10.1 5.6 0 10.2-4.5 10.2-10.1 0-5.6-4.6-10.2-10.2-10.2z"/><path class="bn" d="m742.1 961.7c6.1 0 11-4.9 11-10.9 0-6.1-4.9-11-11-11-6 0-10.9 4.9-10.9 11 0 6 4.9 10.9 10.9 10.9z"/><path class="bo" d="m1364.6 996.6c-3 0-5.5 2.5-5.5 5.5 0 3 2.5 5.5 5.5 5.5 3 0 5.5-2.5 5.5-5.5 0-3-2.5-5.5-5.5-5.5z"/><path class="bp" d="m1364.6 803.1c3.5 0 6.4-2.8 6.4-6.4 0-3.5-2.9-6.4-6.4-6.4-3.5 0-6.4 2.9-6.4 6.4 0 3.6 2.9 6.4 6.4 6.4z"/><path class="bq" d="m1453.5 835.6c-6.9 0-12.5 5.6-12.5 12.5 0 6.9 5.6 12.5 12.5 12.5 6.9 0 12.5-5.6 12.5-12.5 0-6.9-5.6-12.5-12.5-12.5z"/><path class="br" d="m1542.4 803.5c3.8 0 6.8-3 6.8-6.8 0-3.7-3-6.8-6.8-6.8-3.7 0-6.8 3.1-6.8 6.8 0 3.8 3.1 6.8 6.8 6.8z"/><path class="bs" d="m1631.4 858.3c5.6 0 10.2-4.6 10.2-10.2 0-5.7-4.6-10.2-10.2-10.2-5.7 0-10.2 4.5-10.2 10.2 0 5.6 4.5 10.2 10.2 10.2z"/><path class="bt" d="m1631.4 937.2c-7.5 0-13.6 6.1-13.6 13.6 0 7.5 6.1 13.5 13.6 13.5 7.5 0 13.6-6 13.6-13.5 0-7.5-6.1-13.6-13.6-13.6z"/><path class="bu" d="m290.7 1002.1c0 3.7 3.1 6.7 6.8 6.7 3.7 0 6.7-3 6.7-6.7 0-3.7-3-6.7-6.7-6.7-3.7 0-6.8 3-6.8 6.7z"/><path class="bv" d="m297.5 1115.8c6.1 0 11-4.9 11-11 0-6.1-4.9-11.1-11-11.1-6.1 0-11 5-11 11.1 0 6.1 4.9 11 11 11z"/><path class="bw" d="m564.3 939.2c-6.4 0-11.6 5.2-11.6 11.6 0 6.3 5.2 11.5 11.6 11.5 6.3 0 11.5-5.2 11.5-11.5 0-6.4-5.2-11.6-11.5-11.6z"/><path class="bx" d="m648.9 1002.1c0 2.3 1.9 4.2 4.3 4.2 2.3 0 4.2-1.9 4.2-4.2 0-2.3-1.9-4.2-4.2-4.2-2.4 0-4.3 1.9-4.3 4.2z"/><path class="by" d="m742.1 1164.6c4.7 0 8.5-3.8 8.5-8.5 0-4.7-3.8-8.5-8.5-8.5-4.7 0-8.5 3.8-8.5 8.5 0 4.7 3.8 8.5 8.5 8.5z"/><path class="bz" d="m653.2 1091.8c-7.2 0-13 5.8-13 13 0 7.2 5.8 13 13 13 7.2 0 13-5.8 13-13 0-7.2-5.8-13-13-13z"/><path class="bA" d="m1372 1104.8c0-4.1-3.3-7.4-7.4-7.4-4.1 0-7.4 3.3-7.4 7.4 0 4.1 3.3 7.4 7.4 7.4 4.1 0 7.4-3.3 7.4-7.4z"/><path class="bB" d="m1542.4 1011.7c5.4 0 9.7-4.3 9.7-9.6 0-5.3-4.3-9.6-9.7-9.6-5.3 0-9.6 4.3-9.6 9.6 0 5.3 4.3 9.6 9.6 9.6z"/><path class="bC" d="m1542.4 1095.2c-5.3 0-9.6 4.3-9.6 9.6 0 5.3 4.3 9.6 9.6 9.6 5.3 0 9.6-4.3 9.6-9.6 0-5.3-4.3-9.6-9.6-9.6z"/><path class="bD" d="m32.4 1156.1c0-0.9-0.8-1.7-1.7-1.7-0.9 0-1.7 0.8-1.7 1.7 0 1 0.8 1.7 1.7 1.7 0.9 0 1.7-0.7 1.7-1.7z"/><path class="bE" d="m119.6 1099.2c-3 0-5.5 2.5-5.5 5.6 0 3 2.5 5.5 5.5 5.5 3.1 0 5.6-2.5 5.6-5.5 0-3.1-2.5-5.6-5.6-5.6z"/><path class="bF" d="m208.6 1142c-7.9 0-14.2 6.3-14.2 14.1 0 7.8 6.3 14.2 14.2 14.2 7.8 0 14.1-6.4 14.1-14.2 0-7.8-6.3-14.1-14.1-14.1z"/><path class="bG" d="m386.4 1147.6c-4.7 0-8.5 3.8-8.5 8.5 0 4.7 3.8 8.6 8.5 8.6 4.7 0 8.6-3.9 8.6-8.6 0-4.7-3.9-8.5-8.6-8.5z"/><path class="bH" d="m475.3 1114.5c5.4 0 9.8-4.3 9.8-9.7 0-5.4-4.4-9.7-9.8-9.7-5.3 0-9.7 4.3-9.7 9.7 0 5.4 4.4 9.7 9.7 9.7z"/><path class="bI" d="m575.4 1156.1c0-6.1-5-11.1-11.1-11.1-6.2 0-11.2 5-11.2 11.1 0 6.2 5 11.1 11.2 11.1 6.1 0 11.1-4.9 11.1-11.1z"/><path class="bJ" d="m1275.7 1163.8c4.2 0 7.6-3.5 7.6-7.7 0-4.2-3.4-7.6-7.6-7.6-4.3 0-7.7 3.4-7.7 7.6 0 4.2 3.4 7.7 7.7 7.7z"/><path class="bK" d="m1453.5 1164.6c4.7 0 8.5-3.8 8.5-8.5 0-4.6-3.8-8.4-8.5-8.4-4.6 0-8.4 3.8-8.4 8.4 0 4.7 3.8 8.5 8.4 8.5z"/></g><g style="opacity:.2;mix-blend-mode:multiply"><path class="bL" d="m-65.8-138.9v108.7l-14.8 8.5v1.1l15.5-9 0.2-0.1v-109.2z"/><path class="bM" d="m1019.5-138.9v108.7l-108 62.3-108.1-62.3v-108.7h-0.9v109.2l108.7 62.8 0.3 0.1 108.8-62.8 0.2-0.1v-109.2z"/><path class="bN" d="m1236.6-138.9v108.7l-108 62.3-108.1-62.3v-108.7h-1v109.2l108.8 62.8 0.3 0.1 108.7-62.8 0.3-0.1v-109.2z"/><path class="bO" d="m1453.7-138.9v108.7l-108.1 62.3-108-62.3v-108.7h-1v109.2l108.8 62.8 0.2 0.1 108.8-62.8 0.2-0.1v-109.2z"/><path class="bP" d="m1454.6-30.2v-108.7h-0.9v109.2l108.8 62.8 0.2 0.1 68.7-39.6v-1.1l-68.7 39.6z"/><path fill-rule="evenodd" class="bQ" d="m1237.1 221.2l-0.2-0.1-108.8-62.8v-125.9l0.2-0.1 108.8-62.8 0.2 0.1 108.8 62.8v125.9l-0.2 0.1zm-108.1-63.5l108.1 62.4 108-62.4v-124.7l-108-62.4-108.1 62.4z"/><path fill-rule="evenodd" class="bR" d="m1454.2 221.2l-0.3-0.1-108.7-62.8v-125.9l0.2-0.1 108.8-62.8 0.2 0.1 108.8 62.8v125.9l-0.3 0.1zm-108-63.5l108 62.4 108.1-62.4v-124.7l-108.1-62.4-108 62.4z"/><path class="bS" d="m1631.4 197.1l-68.2-39.4v-124.7l68.2-39.4v-1.1l-68.9 39.8-0.3 0.1v125.9l69.2 39.9z"/><path fill-rule="evenodd" class="bT" d="m1345.6 409.2l-0.2-0.1-108.8-62.8v-125.9l0.3-0.1 108.7-62.8 0.3 0.1 108.7 62.8v125.9l-0.2 0.1zm-108.1-63.5l108.1 62.4 108.1-62.4v-124.7l-108.1-62.4-108.1 62.4z"/><path class="bU" d="m1631.4 368.5l-68.7 39.6-108.1-62.4v-124.7l108.1-62.4 68.7 39.6v-1.1l-68.5-39.5-0.2-0.1-108.8 62.8-0.2 0.1v125.9l108.8 62.8 0.2 0.1 68.7-39.6z"/><path class="bV" d="m-65.1 345.6l-0.3-0.1-15.2 8.8v1.1l15.2-8.8 108.1 62.3v124.8l-108.1 62.4-15.2-8.8v1.1l15 8.7 0.2 0.1 108.8-62.8 0.3-0.1v-125.9z"/><path fill-rule="evenodd" class="bW" d="m1454.2 597.2l-0.3-0.1-108.7-62.8v-125.9l0.2-0.1 108.8-62.8 0.2 0.1 108.8 62.8v125.9l-0.3 0.1zm-108-63.5l108 62.4 108.1-62.4v-124.8l-108.1-62.3-108 62.3z"/><path class="bX" d="m1631.4 573.1l-68.2-39.4v-124.8l68.2-39.3v-1.1l-68.9 39.8-0.3 0.1v125.9l69.2 39.9z"/><path class="bY" d="m-80.6 587.3v1.1l14.8 8.5v124.8l-14.8 8.5v1.1l15.5-8.9 0.2-0.1v-125.9z"/><path fill-rule="evenodd" class="bZ" d="m43.2 785.2l-0.3-0.1-108.7-62.8v-125.9l0.2-0.1 108.8-62.8 0.2 0.1 108.8 62.8v125.9l-0.2 0.1zm-108.1-63.5l108.1 62.4 108-62.4v-124.8l-108-62.3-108.1 62.3z"/><path fill-rule="evenodd" class="c0" d="m260.3 785.2l-0.3-0.1-108.8-62.8v-125.9l0.3-0.1 108.8-62.8 0.2 0.1 108.8 62.8v125.9l-0.3 0.1zm-108-63.5l108 62.4 108.1-62.4v-124.8l-108.1-62.3-108 62.3z"/><path fill-rule="evenodd" class="c1" d="m477.3 785.2l-0.2-0.1-108.8-62.8v-125.9l0.3-0.1 108.7-62.8 0.3 0.1 108.7 62.8v125.9l-0.2 0.1zm-108.1-63.5l108.1 62.4 108.1-62.4v-124.8l-108.1-62.3-108.1 62.3z"/><path class="c2" d="m-65.1 721.6l-0.3-0.1-15.2 8.7v1.1l15.2-8.8 108.1 62.4v124.8l-108.1 62.4-15.2-8.8v1.1l15 8.7 0.2 0.1 108.8-62.8 0.3-0.1v-125.9z"/><path fill-rule="evenodd" class="c3" d="m151.7 973.2l-0.2-0.1-108.8-62.8v-125.9l0.2-0.1 108.8-62.8 0.3 0.1 108.7 62.8v125.9l-0.2 0.1zm-108.1-63.5l108.1 62.4 108.1-62.4v-124.8l-108.1-62.4-108.1 62.4z"/><path fill-rule="evenodd" class="c4" d="m368.8 973.2l-0.2-0.1-108.8-62.8v-125.9l0.2-0.1 108.8-62.8 0.2 0.1 108.8 62.8v125.9l-0.2 0.1zm-108.1-63.5l108.1 62.4 108-62.4v-124.8l-108-62.4-108.1 62.4z"/><path class="c5" d="m-80.6 963.3v1.1l14.8 8.5v124.8l-14.8 8.5v1.1l15.5-8.9 0.2-0.1v-125.9z"/><path fill-rule="evenodd" class="c6" d="m43.2 1161.2l-0.3-0.1-108.7-62.8v-125.9l0.2-0.2 108.8-62.8 0.2 0.2 108.8 62.8v125.9l-0.2 0.1zm-108.1-63.5l108.1 62.4 108-62.4v-124.8l-108-62.4-108.1 62.4z"/><path fill-rule="evenodd" class="c7" d="m260.3 1161.2l-0.3-0.1-108.8-62.8v-125.9l0.3-0.2 108.8-62.8 0.2 0.2 108.8 62.8v125.9l-0.3 0.1zm-108-63.5l108 62.4 108.1-62.4v-124.8l-108.1-62.4-108 62.4z"/><path fill-rule="evenodd" class="c8" d="m477.3 1161.2l-0.2-0.1-108.8-62.8v-125.9l0.3-0.2 108.7-62.8 0.3 0.2 108.7 62.8v125.9l-0.2 0.1zm-108.1-63.5l108.1 62.4 108.1-62.4v-124.8l-108.1-62.4-108.1 62.4z"/><path fill-rule="evenodd" class="c9" d="m1345.6 1161.2l-0.2-0.1-108.8-62.8v-125.9l0.3-0.2 108.7-62.8 0.3 0.2 108.7 62.8v125.9l-0.2 0.1zm-108.1-63.5l108.1 62.4 108.1-62.4v-124.8l-108.1-62.4-108.1 62.4z"/><path class="ca" d="m1631.4 1120.4l-68.7 39.7-108.1-62.4v-124.8l108.1-62.4 68.7 39.7v-1.1l-68.5-39.5-0.2-0.2-108.8 62.8-0.2 0.2v125.9l108.8 62.8 0.2 0.1 68.7-39.7z"/><path class="cb" d="m-65.1 1097.6l-0.3-0.2-15.2 8.8v1.1l15.2-8.8 108.1 62.4v36.2h1v-36.7z"/><path class="cc" d="m43.7 1197.1v-36.2l108-62.4 108.1 62.4v36.2h0.9v-36.7l-108.7-62.8-0.3-0.2-108.8 62.8-0.2 0.2v36.7z"/><path class="cd" d="m260.7 1197.1v-36.2l108.1-62.4 108.1 62.4v36.2h0.9v-36.7l-108.8-62.8-0.2-0.2-108.8 62.8-0.2 0.2v36.7z"/><path class="ce" d="m477.8 1197.1v-36.2l108.1-62.4 108 62.4v36.2h1v-36.7l-108.8-62.8-0.2-0.2-108.8 62.8-0.2 0.2v36.7z"/><path class="cf" d="m1346.1 1197.1v-36.2l108.1-62.4 108 62.4v36.2h1v-36.7l-108.8-62.8-0.2-0.2-108.8 62.8-0.2 0.2v36.7z"/><path class="cg" d="m1631.4 1120.4l-68.9 39.8-0.3 0.2v36.7h1v-36.2l68.2-39.4z"/><path class="ch" d="m1486.8-138.9v127.7l-139 80.3-139-80.3v-127.7h-4.9v130.6l143.9 83.1 143.9-83.1v-130.6z"/><path class="ci" d="m1491.7-11.2v-127.7h-4.9v130.6l143.9 83.1 0.7-0.5v-5.6l-0.7 0.4z"/><path class="cj" d="m-80.6 61.1v5.7l11.4 6.5v160.5l-11.4 6.6v5.7l16.3-9.4v-166.2z"/><path fill-rule="evenodd" class="ck" d="m74.7 319.8l-143.9-83.1v-166.2l143.9-83.1 143.9 83.1v166.2zm-139-85.9l139 80.2 139-80.2v-160.5l-139-80.3-139 80.3z"/><path class="cl" d="m1631.4 68.7l-3.2 1.8v166.2l3.2 1.8z"/><path class="cm" d="m-66.8 232.4l-13.8 8v5.7l13.8-8 139 80.2v160.5l-139 80.3-13.8-8v5.7l13.8 8 143.9-83.1v-166.2z"/><path fill-rule="evenodd" class="cn" d="m216.1 564.8l-143.9-83.1v-166.2l143.9-83.1 144 83.1v166.2zm-139-85.9l139 80.2 139-80.2v-160.5l-139-80.3-139 80.3z"/><path class="co" d="m-80.6 551.1v5.7l11.4 6.6v160.5l-11.4 6.5v5.7l16.3-9.4v-166.2z"/><path fill-rule="evenodd" class="cp" d="m74.7 809.8l-143.9-83.1v-166.2l143.9-83.1 143.9 83.1v166.2zm-139-85.9l139 80.2 139-80.2v-160.5l-139-80.3-139 80.3z"/><path fill-rule="evenodd" class="cq" d="m1631.4 727.7l-142.2 82.1-143.9-83.1v-166.2l143.9-83.1 142.2 82.1zm-3.2-3.8v-160.5l-139-80.3-139 80.3v160.5l139 80.2z"/><path class="cr" d="m-66.8 722.4l-13.8 8v5.7l13.8-8 139 80.3v160.5l-139 80.2-13.8-8v5.7l13.8 8 143.9-83.1v-166.2z"/><path fill-rule="evenodd" class="cs" d="m216.1 1054.8l-143.9-83.1v-166.2l143.9-83.1 144 83.1v166.2zm-139-85.9l139 80.2 139-80.2v-160.5l-139-80.3-139 80.3z"/><path fill-rule="evenodd" class="ct" d="m1347.8 1054.8l-143.9-83.1v-166.2l143.9-83.1 143.9 83.1v166.2zm-139-85.9l139 80.2 139-80.2v-160.5l-139-80.3-139 80.3z"/><path class="cu" d="m1631.4 1048.7l-0.7 0.4-139-80.2v-160.5l139-80.3 0.7 0.4v-5.6l-0.7-0.5-143.9 83.1v166.2l143.9 83.1 0.7-0.4z"/><path class="cv" d="m-80.6 1041.1v5.7l11.4 6.6v143.7h4.9v-146.6z"/><path class="cw" d="m-64.3 1197.1v-143.7l139-80.3 139 80.3v143.7h4.9v-146.6l-143.9-83.1-143.9 83.1v146.6z"/><path class="cx" d="m218.6 1197.1v-143.7l139-80.3 139 80.3v143.7h4.9v-146.6l-143.9-83.1-143.9 83.1v146.6z"/><path class="cy" d="m501.5 1197.1v-143.7l139-80.3 139 80.3v143.7h4.9v-146.6l-143.9-83.1-143.9 83.1v146.6z"/><path class="cz" d="m784.4 1197.1v-143.7l139-80.3 139 80.3v143.7h4.9v-146.6l-143.9-83.1-143.9 83.1v146.6z"/><path class="cA" d="m1067.3 1197.1v-143.7l139-80.3 139 80.3v143.7h4.9v-146.6l-143.9-83.1-143.9 83.1v146.6z"/><path class="cB" d="m1631.4 1197.1v-147.6l-142.2-82.1-143.9 83.1v146.6h4.9v-143.7l139-80.3 139 80.3v143.7z"/><path class="cC" d="m1631.4 1048.7l-3.2 1.8v146.6h3.2z"/><path class="cD" d="m-65.4-17.7c6.8 0 12.3-5.5 12.3-12.3 0-6.7-5.5-12.2-12.3-12.2-6.7 0-12.2 5.5-12.2 12.2 0 6.8 5.5 12.3 12.2 12.3z"/><path class="cE" d="m802.9-18.7c6.3 0 11.4-5 11.4-11.3 0-6.2-5.1-11.3-11.4-11.3-6.2 0-11.3 5.1-11.3 11.3 0 6.3 5.1 11.3 11.3 11.3z"/><path class="cF" d="m1020-19.2c6 0 10.8-4.8 10.8-10.8 0-5.9-4.8-10.7-10.8-10.7-5.9 0-10.7 4.8-10.7 10.7 0 6 4.8 10.8 10.7 10.8z"/><path class="cG" d="m1135.3 32.7c0-3.8-3-6.8-6.7-6.8-3.8 0-6.8 3-6.8 6.8 0 3.7 3 6.8 6.8 6.8 3.7 0 6.7-3.1 6.7-6.8z"/><path class="cH" d="m1562.7 44.4c6.5 0 11.7-5.2 11.7-11.7 0-6.5-5.2-11.7-11.7-11.7-6.5 0-11.7 5.2-11.7 11.7 0 6.5 5.2 11.7 11.7 11.7z"/><path class="cI" d="m1454.2-16.1c7.6 0 13.8-6.2 13.8-13.9 0-7.6-6.2-13.8-13.8-13.8-7.7 0-13.9 6.2-13.9 13.8 0 7.7 6.2 13.9 13.9 13.9z"/><path class="cJ" d="m920.5 32.7c0-5-4-9-9-9-5 0-9 4-9 9 0 5 4 9 9 9 5 0 9-4 9-9z"/><path class="cK" d="m1244.4-30c0-4-3.3-7.2-7.3-7.2-4 0-7.3 3.2-7.3 7.2 0 4 3.3 7.3 7.3 7.3 4 0 7.3-3.3 7.3-7.3z"/><path class="cL" d="m1345.6 40.5c4.3 0 7.8-3.5 7.8-7.8 0-4.3-3.5-7.8-7.8-7.8-4.3 0-7.8 3.5-7.8 7.8 0 4.3 3.5 7.8 7.8 7.8z"/><path class="cM" d="m1562.7 148c-5.5 0-10 4.5-10 10 0 5.6 4.5 10.1 10 10.1 5.6 0 10.1-4.5 10.1-10.1 0-5.5-4.5-10-10.1-10z"/><path class="cN" d="m36.1 408.7c0 3.9 3.2 7.1 7.1 7.1 3.9 0 7.1-3.2 7.1-7.1 0-3.9-3.2-7.1-7.1-7.1-3.9 0-7.1 3.2-7.1 7.1z"/><path class="cO" d="m1128.6 146.4c-6.4 0-11.6 5.2-11.6 11.6 0 6.4 5.2 11.6 11.6 11.6 6.4 0 11.6-5.2 11.6-11.6 0-6.4-5.2-11.6-11.6-11.6z"/><path class="cP" d="m1225 220.7c0 6.6 5.4 12 12.1 12 6.6 0 12-5.4 12-12 0-6.7-5.4-12.1-12-12.1-6.7 0-12.1 5.4-12.1 12.1z"/><path class="cQ" d="m1345.6 416c4.1 0 7.3-3.3 7.3-7.3 0-4-3.2-7.3-7.3-7.3-4 0-7.2 3.3-7.2 7.3 0 4 3.2 7.3 7.2 7.3z"/><path class="cR" d="m1237.1 336.5c-5.2 0-9.5 4.3-9.5 9.5 0 5.2 4.3 9.5 9.5 9.5 5.2 0 9.5-4.3 9.5-9.5 0-5.2-4.3-9.5-9.5-9.5z"/><path class="cS" d="m1345.6 168.1c5.6 0 10.1-4.5 10.1-10.1 0-5.6-4.5-10.1-10.1-10.1-5.6 0-10.1 4.5-10.1 10.1 0 5.6 4.5 10.1 10.1 10.1z"/><path class="cT" d="m1454.2 360.4c7.9 0 14.3-6.5 14.3-14.4 0-7.9-6.4-14.4-14.3-14.4-8 0-14.4 6.5-14.4 14.4 0 7.9 6.4 14.4 14.4 14.4z"/><path class="cU" d="m1562.7 416.8c4.5 0 8.1-3.6 8.1-8.1 0-4.5-3.6-8.1-8.1-8.1-4.5 0-8.1 3.6-8.1 8.1 0 4.5 3.6 8.1 8.1 8.1z"/><path class="cV" d="m1454.2 234.9c7.8 0 14.2-6.4 14.2-14.2 0-7.9-6.4-14.2-14.2-14.2-7.9 0-14.2 6.3-14.2 14.2 0 7.8 6.3 14.2 14.2 14.2z"/><path class="cW" d="m-65.4 359.9c7.7 0 13.9-6.2 13.9-13.9 0-7.6-6.2-13.8-13.9-13.8-7.6 0-13.8 6.2-13.8 13.8 0 7.7 6.2 13.9 13.8 13.9z"/><path class="cX" d="m43.2 545.8c6.5 0 11.7-5.3 11.7-11.8 0-6.5-5.2-11.8-11.7-11.8-6.5 0-11.8 5.3-11.8 11.8 0 6.5 5.3 11.8 11.8 11.8z"/><path class="cY" d="m265.8 534c0-3.1-2.5-5.6-5.5-5.6-3.1 0-5.6 2.5-5.6 5.6 0 3.1 2.5 5.6 5.6 5.6 3 0 5.5-2.5 5.5-5.6z"/><path class="cZ" d="m368.8 607.5c6 0 10.8-4.9 10.8-10.8 0-6-4.8-10.8-10.8-10.8-6 0-10.8 4.8-10.8 10.8 0 5.9 4.8 10.8 10.8 10.8z"/><path class="d0" d="m487.8 534c0-5.8-4.7-10.4-10.5-10.4-5.7 0-10.4 4.6-10.4 10.4 0 5.8 4.7 10.4 10.4 10.4 5.8 0 10.5-4.6 10.5-10.4z"/><path class="d1" d="m585.9 608.9c6.7 0 12.2-5.5 12.2-12.2 0-6.8-5.5-12.2-12.2-12.2-6.8 0-12.2 5.4-12.2 12.2 0 6.7 5.4 12.2 12.2 12.2z"/><path class="d2" d="m-74.4 722c0 5 4 9.1 9 9.1 5.1 0 9.1-4.1 9.1-9.1 0-5-4-9.1-9.1-9.1-5 0-9 4.1-9 9.1z"/><path class="d3" d="m-59.1 596.7c0-3.5-2.8-6.3-6.3-6.3-3.4 0-6.2 2.8-6.2 6.3 0 3.4 2.8 6.2 6.2 6.2 3.5 0 6.3-2.8 6.3-6.2z"/><path class="d4" d="m151.7 591.6c-2.8 0-5.1 2.2-5.1 5.1 0 2.8 2.3 5.1 5.1 5.1 2.8 0 5.1-2.3 5.1-5.1 0-2.9-2.3-5.1-5.1-5.1z"/><path class="d5" d="m251.7 784.7c0 4.7 3.8 8.6 8.6 8.6 4.7 0 8.6-3.9 8.6-8.6 0-4.8-3.9-8.6-8.6-8.6-4.8 0-8.6 3.8-8.6 8.6z"/><path class="d6" d="m151.7 709.6c-6.8 0-12.4 5.6-12.4 12.4 0 6.8 5.6 12.4 12.4 12.4 6.9 0 12.4-5.6 12.4-12.4 0-6.8-5.5-12.4-12.4-12.4z"/><path class="d7" d="m585.9 735.4c7.3 0 13.3-6 13.3-13.4 0-7.4-6-13.4-13.3-13.4-7.4 0-13.4 6-13.4 13.4 0 7.4 6 13.4 13.4 13.4z"/><path class="d8" d="m1345.6 778c-3.7 0-6.7 3-6.7 6.7 0 3.7 3 6.7 6.7 6.7 3.7 0 6.7-3 6.7-6.7 0-3.7-3-6.7-6.7-6.7z"/><path class="d9" d="m1345.6 541.8c4.3 0 7.8-3.5 7.8-7.8 0-4.3-3.5-7.8-7.8-7.8-4.3 0-7.8 3.5-7.8 7.8 0 4.3 3.5 7.8 7.8 7.8z"/><path class="da" d="m1454.2 581.4c-8.5 0-15.3 6.8-15.3 15.3 0 8.4 6.8 15.2 15.3 15.2 8.4 0 15.2-6.8 15.2-15.2 0-8.5-6.8-15.3-15.2-15.3z"/><path class="db" d="m1562.7 542.3c4.6 0 8.3-3.7 8.3-8.3 0-4.6-3.7-8.3-8.3-8.3-4.6 0-8.3 3.7-8.3 8.3 0 4.6 3.7 8.3 8.3 8.3z"/><path class="dc" d="m35 784.7c0 4.5 3.6 8.2 8.2 8.2 4.5 0 8.2-3.7 8.2-8.2 0-4.6-3.7-8.3-8.2-8.3-4.6 0-8.2 3.7-8.2 8.3z"/><path class="dd" d="m43.2 923.5c7.4 0 13.4-6.1 13.4-13.5 0-7.4-6-13.5-13.4-13.5-7.5 0-13.5 6.1-13.5 13.5 0 7.4 6 13.5 13.5 13.5z"/><path class="de" d="m368.8 707.9c-7.8 0-14.1 6.3-14.1 14.1 0 7.8 6.3 14.1 14.1 14.1 7.8 0 14.1-6.3 14.1-14.1 0-7.8-6.3-14.1-14.1-14.1z"/><path class="df" d="m472.2 784.7c0 2.8 2.3 5.1 5.1 5.1 2.9 0 5.2-2.3 5.2-5.1 0-2.9-2.3-5.2-5.2-5.2-2.8 0-5.1 2.3-5.1 5.2z"/><path class="dg" d="m585.9 983c5.7 0 10.3-4.6 10.3-10.3 0-5.8-4.6-10.4-10.3-10.4-5.8 0-10.4 4.6-10.4 10.4 0 5.7 4.6 10.3 10.4 10.3z"/><path class="dh" d="m477.3 894.1c-8.7 0-15.8 7.1-15.8 15.9 0 8.7 7.1 15.8 15.8 15.8 8.8 0 15.9-7.1 15.9-15.8 0-8.8-7.1-15.9-15.9-15.9z"/><path class="di" d="m1354.6 910c0-5-4-9-9-9-4.9 0-9 4-9 9 0 5 4.1 9 9 9 5 0 9-4 9-9z"/><path class="dj" d="m1562.7 796.4c6.5 0 11.7-5.3 11.7-11.7 0-6.5-5.2-11.8-11.7-11.8-6.5 0-11.7 5.3-11.7 11.8 0 6.4 5.2 11.7 11.7 11.7z"/><path class="dk" d="m1562.7 898.3c-6.5 0-11.7 5.2-11.7 11.7 0 6.5 5.2 11.7 11.7 11.7 6.5 0 11.7-5.2 11.7-11.7 0-6.5-5.2-11.7-11.7-11.7z"/><path class="dl" d="m-65.4 955.4c-6.6 0-12.3 3.8-15.2 9.3v15.9c2.9 5.5 8.6 9.3 15.2 9.3 9.6 0 17.3-7.7 17.3-17.2 0-9.6-7.7-17.3-17.3-17.3z"/><path class="dm" d="m43.2 1168.1c4.1 0 7.4-3.3 7.4-7.5 0-4.1-3.3-7.4-7.4-7.4-4.1 0-7.5 3.3-7.5 7.4 0 4.2 3.4 7.5 7.5 7.5z"/><path class="dn" d="m151.7 1112.7c8.2 0 14.7-6.6 14.7-14.7 0-8.2-6.5-14.7-14.7-14.7-8.1 0-14.7 6.5-14.7 14.7 0 8.1 6.6 14.7 14.7 14.7z"/><path class="do" d="m151.7 962.2c-5.7 0-10.4 4.7-10.4 10.5 0 5.7 4.7 10.4 10.4 10.4 5.8 0 10.5-4.7 10.5-10.4 0-5.8-4.7-10.5-10.5-10.5z"/><path class="dp" d="m260.3 921.9c6.5 0 11.8-5.4 11.8-11.9 0-6.6-5.3-11.9-11.8-11.9-6.6 0-11.9 5.3-11.9 11.9 0 6.5 5.3 11.9 11.9 11.9z"/><path class="dq" d="m382.4 972.7c0-7.5-6.1-13.6-13.6-13.6-7.5 0-13.6 6.1-13.6 13.6 0 7.5 6.1 13.5 13.6 13.5 7.5 0 13.6-6 13.6-13.5z"/><path class="dr" d="m477.3 1171.3c5.9 0 10.7-4.8 10.7-10.7 0-5.8-4.8-10.6-10.7-10.6-5.9 0-10.6 4.8-10.6 10.6 0 5.9 4.7 10.7 10.6 10.7z"/><path class="ds" d="m585.9 1086.7c-6.3 0-11.3 5.1-11.3 11.3 0 6.2 5 11.3 11.3 11.3 6.2 0 11.2-5.1 11.2-11.3 0-6.2-5-11.3-11.2-11.3z"/><path class="dt" d="m1237.1 982c5.1 0 9.3-4.2 9.3-9.3 0-5.2-4.2-9.4-9.3-9.4-5.2 0-9.3 4.2-9.3 9.4 0 5.1 4.1 9.3 9.3 9.3z"/><path class="du" d="m1454.2 983c5.7 0 10.3-4.6 10.3-10.3 0-5.7-4.6-10.4-10.3-10.4-5.7 0-10.3 4.7-10.3 10.4 0 5.7 4.6 10.3 10.3 10.3z"/><path class="dv" d="m-65.4 1092.4c-3 0-5.5 2.5-5.5 5.6 0 3.1 2.5 5.6 5.5 5.6 3.1 0 5.6-2.5 5.6-5.6 0-3.1-2.5-5.6-5.6-5.6z"/><path class="dw" d="m260.3 1146.6c-7.8 0-14.1 6.3-14.1 14 0 7.8 6.3 14.1 14.1 14.1 7.7 0 14-6.3 14-14.1 0-7.7-6.3-14-14-14z"/><path class="dx" d="m362.5 1098c0 3.5 2.8 6.3 6.3 6.3 3.5 0 6.3-2.8 6.3-6.3 0-3.5-2.8-6.3-6.3-6.3-3.5 0-6.3 2.8-6.3 6.3z"/><path class="dy" d="m694.4 1169c4.6 0 8.3-3.8 8.3-8.4 0-4.6-3.7-8.3-8.3-8.3-4.6 0-8.3 3.7-8.3 8.3 0 4.6 3.7 8.4 8.3 8.4z"/><path class="dz" d="m1237.1 1087.5c-5.8 0-10.4 4.7-10.4 10.5 0 5.7 4.6 10.4 10.4 10.4 5.8 0 10.4-4.7 10.4-10.4 0-5.8-4.6-10.5-10.4-10.5z"/><path class="dA" d="m1339.8 1160.6c0 3.3 2.6 5.9 5.8 5.9 3.2 0 5.9-2.6 5.9-5.9 0-3.2-2.7-5.8-5.9-5.8-3.2 0-5.8 2.6-5.8 5.8z"/><path class="dB" d="m1454.2 1087.1c-6 0-10.9 4.9-10.9 10.9 0 6 4.9 10.8 10.9 10.8 6 0 10.8-4.8 10.8-10.8 0-6-4.8-10.9-10.8-10.9z"/><path class="dC" d="m1562.7 1147.8c-7.1 0-12.8 5.8-12.8 12.8 0 7.1 5.7 12.9 12.8 12.9 7.1 0 12.8-5.8 12.8-12.9 0-7-5.7-12.8-12.8-12.8z"/></g></svg>