<?xml version="1.0" ?><svg viewBox="0 0 512 512" xmlns="http://www.w3.org/2000/svg"><defs><style>.cls-1{fill:#2e4060;}.cls-2{fill:#202d40;}.cls-3{fill:#0b0d20;}.cls-4{fill:#7f8c8d;}.cls-5{fill:#c0402b;}</style></defs><title/><g id="Google"><g id="Gclassroom"><path class="cls-1" d="M442.19,453.14H69.81A43.8,43.8,0,0,1,26,409.33V102.67A43.8,43.8,0,0,1,69.81,58.86H442.19A43.8,43.8,0,0,1,486,102.67V409.33a43.86,43.86,0,0,1-43.81,43.81Z"/><rect class="cls-2" height="306.67" width="372.38" x="69.81" y="102.67"/><rect class="cls-3" height="21.9" width="372.38" x="69.81" y="102.67"/><polygon class="cls-4" points="386.95 409.33 299.33 409.33 343.14 453.14 430.76 453.14 386.95 409.33"/><circle class="cls-5" cx="343.14" cy="245.36" r="21.9" transform="translate(-72.99 314.5) rotate(-45)"/><path class="cls-5" d="M167.9,223.46a21.91,21.91,0,1,0,21.91,21.9,21.89,21.89,0,0,0-21.91-21.9Z"/><path class="cls-5" d="M393.26,294.21c-7.59-8.09-23.76-16.31-49.64-16.31s-42.05,8.22-49.64,16.31a19.11,19.11,0,0,0-5.12,13.13v14.37H398.38V307.34A19.13,19.13,0,0,0,393.26,294.21Z"/><path class="cls-5" d="M168.38,277.9c-25.88,0-42,8.22-49.64,16.31a19.11,19.11,0,0,0-5.12,13.13v14.37H223.14V307.34A19.13,19.13,0,0,0,218,294.21C210.43,286.12,194.26,277.9,168.38,277.9Z"/><path class="cls-5" d="M321.71,297a22.94,22.94,0,0,0-6.15-15.76C306.46,271.52,287.05,256,256,256s-50.46,15.52-59.56,25.22A22.93,22.93,0,0,0,190.29,297v24.72H321.71Z"/><circle class="cls-5" cx="255.52" cy="212.5" r="32.86" transform="translate(-41.99 64.39) rotate(-13.28)"/><rect class="cls-5" height="21.9" width="87.62" x="299.81" y="387.43"/></g></g></svg>